<?xml version="1.0" encoding="UTF-8"?>
<svg version="1.1" xmlns="http://www.w3.org/2000/svg" width="500" height="500">
<path d="M0 0 C6.04493107 3.30951534 9.64205108 8.08346509 11.59375 14.6640625 C12.08545438 16.82077966 12.50871601 18.96303178 12.84765625 21.1484375 C13.54890625 20.5090625 14.25015625 19.8696875 14.97265625 19.2109375 C18.20105028 16.89491569 19.90283547 16.30623033 23.84765625 16.1484375 C29.3731134 17.11781595 32.42448636 18.67929903 35.84765625 23.1484375 C40.79007625 33.3707118 39.11711854 42.587019 35.51953125 52.95703125 C24.96541913 80.87123855 -0.99118693 104.23133862 -25.15234375 120.1484375 C-24.89839844 121.07140625 -24.64445312 121.994375 -24.3828125 122.9453125 C-23.20912341 127.32433962 -22.1614046 131.72884313 -21.15234375 136.1484375 C-20.99266113 136.83357422 -20.83297852 137.51871094 -20.66845703 138.22460938 C-12.47342784 175.27575114 -18.76529619 213.95464944 -31.15234375 249.1484375 C-30.23710937 248.21 -29.321875 247.2715625 -28.37890625 246.3046875 C-27.17864984 245.08567709 -25.97811456 243.86694121 -24.77734375 242.6484375 C-24.1740625 242.02839844 -23.57078125 241.40835938 -22.94921875 240.76953125 C-22.36914062 240.18300781 -21.7890625 239.59648437 -21.19140625 238.9921875 C-20.65725098 238.44755859 -20.1230957 237.90292969 -19.57275391 237.34179688 C-18.15234375 236.1484375 -18.15234375 236.1484375 -16.15234375 236.1484375 C-16.15234375 235.4884375 -16.15234375 234.8284375 -16.15234375 234.1484375 C-14.64447214 232.77352451 -13.06694614 231.47479288 -11.46484375 230.2109375 C-10.45679688 229.40398437 -9.44875 228.59703125 -8.41015625 227.765625 C-7.60626465 227.12318848 -7.60626465 227.12318848 -6.78613281 226.46777344 C-2.40014501 222.92595065 1.86557073 219.23709172 6.15625 215.58105469 C7.83642567 214.15794978 9.5280999 212.74968387 11.22265625 211.34375 C17.99691902 205.68469155 24.41362574 199.76298162 30.66015625 193.5234375 C31.36052002 192.82387939 32.06088379 192.12432129 32.7824707 191.40356445 C36.2299951 188.08341336 36.2299951 188.08341336 38.84765625 184.1484375 C39.50765625 184.1484375 40.16765625 184.1484375 40.84765625 184.1484375 C41.11578125 183.5709375 41.38390625 182.9934375 41.66015625 182.3984375 C42.84765625 180.1484375 42.84765625 180.1484375 44.53515625 178.1484375 C46.02482656 176.27716493 46.02482656 176.27716493 45.84765625 174.2109375 C44.41149822 171.24886157 42.22004857 169.41048599 39.84765625 167.1484375 C28.95948429 154.89924404 26.16416147 140.08204201 26.43603516 124.22509766 C26.47274529 122.01808471 26.47705116 119.8127571 26.4765625 117.60546875 C26.58580922 95.12968241 26.58580922 95.12968241 31.09765625 89.8359375 C33.84765625 88.1484375 33.84765625 88.1484375 36.97265625 88.1484375 C39.85629322 89.15144166 40.8918043 89.91317813 42.84765625 92.1484375 C43.83765625 92.4784375 44.82765625 92.8084375 45.84765625 93.1484375 C45.97140625 92.4059375 46.09515625 91.6634375 46.22265625 90.8984375 C46.80252326 88.34702265 47.58474364 86.4216802 48.84765625 84.1484375 C49.50765625 84.1484375 50.16765625 84.1484375 50.84765625 84.1484375 C50.84765625 83.4884375 50.84765625 82.8284375 50.84765625 82.1484375 C52.23625417 81.72792528 53.6341476 81.33804423 55.03515625 80.9609375 C55.81246094 80.74050781 56.58976563 80.52007812 57.390625 80.29296875 C60.79047211 80.09297774 62.185896 81.07287241 64.84765625 83.1484375 C66.54296875 85.55859375 66.54296875 85.55859375 67.97265625 88.2109375 C69.80184203 91.57762809 70.59471141 92.97980761 73.84765625 95.1484375 C76.23745309 95.37239236 78.63620236 95.50653381 81.03515625 95.5859375 C89.17023516 95.98559294 95.85297244 97.15375369 101.84765625 103.1484375 C106.30580623 109.05247396 106.32006115 113.89177329 105.84765625 121.1484375 C106.69328125 120.7978125 107.53890625 120.4471875 108.41015625 120.0859375 C113.52441032 118.69114094 117.20853361 119.51800571 122.09765625 121.3984375 C125.28847708 123.42895985 126.44457382 124.64073141 127.84765625 128.1484375 C128.69970692 136.9529611 125.4192704 142.71271063 120.25 149.64453125 C119.78722656 150.14082031 119.32445312 150.63710937 118.84765625 151.1484375 C118.18765625 151.1484375 117.52765625 151.1484375 116.84765625 151.1484375 C116.51765625 152.1384375 116.18765625 153.1284375 115.84765625 154.1484375 C115.18765625 154.1484375 114.52765625 154.1484375 113.84765625 154.1484375 C113.84765625 154.8084375 113.84765625 155.4684375 113.84765625 156.1484375 C98.97941908 168.54235035 81.45157951 176.24311983 61.93457031 176.26416016 C55.22519301 176.1856011 55.22519301 176.1856011 49.32421875 179.07421875 C47.28443991 181.66626972 45.57984232 184.34338844 43.84765625 187.1484375 C42.47037837 188.80695343 41.05217814 190.43223182 39.59765625 192.0234375 C38.84742188 192.84457031 38.0971875 193.66570312 37.32421875 194.51171875 C30.10209728 202.20088594 22.76648408 209.42787955 14.49609375 216.00390625 C11.86096429 218.13766152 9.35105675 220.36220897 6.84765625 222.6484375 C2.55714208 226.55877953 -1.88982928 230.22592582 -6.40625 233.87109375 C-10.04388373 236.88779427 -13.50809617 240.07547477 -16.9609375 243.30078125 C-18.97677365 245.00040781 -20.80844333 245.99704782 -23.15234375 247.1484375 C-23.83502513 248.47364253 -24.50304785 249.80655932 -25.15234375 251.1484375 C-26.14234375 251.4784375 -27.13234375 251.8084375 -28.15234375 252.1484375 C-28.84956806 253.46604916 -29.51171603 254.80239948 -30.15234375 256.1484375 C-31.34591625 257.53407914 -32.57926231 258.88596486 -33.83984375 260.2109375 C-43.08419802 270.4658753 -49.3230656 283.22085553 -56.15234375 295.1484375 C-55.12238281 294.38660156 -54.09242188 293.62476563 -53.03125 292.83984375 C-37.10058785 281.21834161 -21.10076714 272.76917457 -2.15234375 267.1484375 C-0.93160156 266.78621094 0.28914062 266.42398437 1.546875 266.05078125 C15.85476549 262.66662673 31.23276063 263.8891667 45.84765625 264.1484375 C46.49023438 265.94799805 46.49023438 265.94799805 46.84765625 268.1484375 C45.09441984 270.61317567 43.37295105 272.74060775 41.34765625 274.9609375 C40.79464844 275.58460205 40.24164063 276.2082666 39.671875 276.85083008 C28.79122531 289.03581994 28.79122531 289.03581994 23.84765625 292.1484375 C23.18765625 292.1484375 22.52765625 292.1484375 21.84765625 292.1484375 C21.84765625 292.8084375 21.84765625 293.4684375 21.84765625 294.1484375 C-0.69517433 311.72349616 -29.06937078 318.13361545 -57.1484375 314.7265625 C-64.24526994 313.60197441 -64.24526994 313.60197441 -67.15234375 312.1484375 C-67.43376221 312.87482422 -67.71518066 313.60121094 -68.00512695 314.34960938 C-69.06991593 316.94734097 -70.24294251 319.42455685 -71.5078125 321.9296875 C-90.07976463 359.28763022 -97.82460493 398.73626282 -84.69018555 439.2902832 C-77.62994167 459.71038669 -62.01762156 484.2157986 -42.15234375 494.1484375 C-42.48234375 495.7984375 -42.81234375 497.4484375 -43.15234375 499.1484375 C-49.5646131 496.94566152 -54.11076336 492.54848899 -59.15234375 488.1484375 C-59.90902344 487.48972656 -60.66570312 486.83101563 -61.4453125 486.15234375 C-83.62679714 465.42538269 -96.01788471 434.36593977 -97.12890625 404.38378906 C-97.15797248 401.61159728 -97.07762241 398.84925011 -96.99609375 396.078125 C-96.97200439 394.99982422 -96.94791504 393.92152344 -96.9230957 392.81054688 C-96.86829794 390.64691898 -96.78679816 388.4837757 -96.67651367 386.32226562 C-96.60609934 383.48000391 -96.59224093 380.93677543 -97.15234375 378.1484375 C-99.88210135 375.42710972 -99.88210135 375.42710972 -103.15234375 374.1484375 C-105.02734375 372.5234375 -105.02734375 372.5234375 -106.15234375 371.1484375 C-106.15234375 370.4884375 -106.15234375 369.8284375 -106.15234375 369.1484375 C-106.81234375 369.1484375 -107.47234375 369.1484375 -108.15234375 369.1484375 C-116.87220347 361.15321986 -123.82064677 349.61568208 -129.15234375 339.1484375 C-129.45430664 338.60050537 -129.75626953 338.05257324 -130.06738281 337.48803711 C-133.00919397 331.96899226 -134.70086995 326.37074592 -136.27734375 320.3359375 C-136.52871094 319.41490234 -136.78007812 318.49386719 -137.0390625 317.54492188 C-139.51994192 308.26435462 -141.37163288 299.00551185 -141.83984375 289.3984375 C-141.87819336 288.63547363 -141.91654297 287.87250977 -141.95605469 287.08642578 C-142.3855921 276.84344699 -142.58717218 266.59655024 -138.15234375 257.1484375 C-132.36335785 258.03020356 -129.56399159 262.76462099 -126.15234375 267.1484375 C-108.68336088 291.72086366 -100.09893475 319.34289672 -94.76342773 348.72998047 C-94.46867554 350.34670654 -94.46867554 350.34670654 -94.16796875 351.99609375 C-93.99555664 352.96554932 -93.82314453 353.93500488 -93.64550781 354.93383789 C-93.36849677 357.11111823 -93.36849677 357.11111823 -92.15234375 358.1484375 C-91.80042969 356.95089844 -91.44851562 355.75335938 -91.0859375 354.51953125 C-84.0501022 331.09337032 -72.12050137 310.54489566 -59.56787109 289.65795898 C-56.52808329 284.58044361 -53.72462815 279.47895457 -51.15234375 274.1484375 C-51.67183594 273.4471875 -52.19132812 272.7459375 -52.7265625 272.0234375 C-64.38184944 256.16707671 -72.29085948 239.74391277 -76.40234375 220.3984375 C-76.56549072 219.63080078 -76.7286377 218.86316406 -76.89672852 218.07226562 C-79.12578894 206.97797444 -79.38912367 195.92685624 -79.40234375 184.6484375 C-79.4040155 183.89642059 -79.40568726 183.14440369 -79.40740967 182.36959839 C-79.41118583 154.03670062 -79.41118583 154.03670062 -74.15234375 146.1484375 C-69.96757007 147.67104394 -67.92104418 150.68871991 -65.46484375 154.2109375 C-65.03131592 154.8294458 -64.59778809 155.4479541 -64.15112305 156.08520508 C-44.73278529 184.45879008 -39.47685088 215.44321646 -38.15234375 249.1484375 C-34.5521628 240.95950133 -31.54031307 232.77006167 -29.15234375 224.1484375 C-28.62447266 222.27091797 -28.62447266 222.27091797 -28.0859375 220.35546875 C-19.6988196 188.82420061 -22.19139981 155.42434459 -30.15234375 124.1484375 C-30.48614798 122.81522198 -30.81963282 121.48192628 -31.15234375 120.1484375 C-31.95671875 120.1278125 -32.76109375 120.1071875 -33.58984375 120.0859375 C-41.68535726 117.95553921 -48.8464167 110.4374791 -54.15234375 104.1484375 C-54.15234375 103.4884375 -54.15234375 102.8284375 -54.15234375 102.1484375 C-54.81234375 102.1484375 -55.47234375 102.1484375 -56.15234375 102.1484375 C-56.15234375 101.4884375 -56.15234375 100.8284375 -56.15234375 100.1484375 C-56.70664063 99.88804688 -57.2609375 99.62765625 -57.83203125 99.359375 C-60.44533768 97.99552821 -62.82588123 96.41012822 -65.27734375 94.7734375 C-72.03160316 90.44999389 -78.76810302 87.78895119 -86.46484375 85.6484375 C-91.87412906 84.08594378 -95.00442088 81.8703218 -98.15234375 77.1484375 C-98.65163404 71.15695406 -97.7491697 67.65370852 -95.15234375 62.1484375 C-94.31196755 58.73919991 -94.03147902 55.56307778 -94.01171875 52.05859375 C-93.99238281 51.10919922 -93.97304687 50.15980469 -93.953125 49.18164062 C-93.91934111 47.2052828 -93.90104693 45.22859796 -93.8984375 43.25195312 C-93.68994788 35.15926383 -93.68994788 35.15926383 -90.78125 31.546875 C-87.81856718 28.84392217 -86.09514919 27.8442267 -82.15234375 27.1484375 C-79.41558371 27.29195656 -76.86328803 27.68103331 -74.15234375 28.1484375 C-74.23484375 27.1378125 -74.31734375 26.1271875 -74.40234375 25.0859375 C-74.05716751 19.64941172 -72.10827938 16.6146172 -68.71484375 12.3359375 C-65.07910922 9.57277926 -61.38156755 8.90497316 -56.90625 8.875 C-55.91085205 8.85727539 -54.9154541 8.83955078 -53.88989258 8.82128906 C-52.84212646 8.80549805 -51.79436035 8.78970703 -50.71484375 8.7734375 C-38.3842407 8.41589517 -28.79233482 6.03208906 -17.33984375 1.3984375 C-11.26277212 -0.97634049 -6.24776982 -2.47189441 0 0 Z M-20.30615234 7.79101562 C-31.57894664 12.49705262 -42.39843955 13.576335 -54.51391602 13.50708008 C-58.99279173 13.57231614 -62.16056649 13.65384961 -65.72265625 16.55078125 C-69.96891512 21.09059178 -70.61775072 24.98808551 -70.45703125 31.05078125 C-67.48239961 61.29286959 -50.78015704 88.96848977 -32.15234375 112.1484375 C-26.82914722 101.50204445 -36.46001632 76.42596001 -40.03076172 65.44775391 C-41.4981072 61.11195982 -43.0297363 56.80278847 -44.6015625 52.50390625 C-45.96570118 48.75684178 -47.10935124 44.99672021 -48.15234375 41.1484375 C-46.83234375 41.1484375 -45.51234375 41.1484375 -44.15234375 41.1484375 C-43.97638672 41.75139648 -43.80042969 42.35435547 -43.61914062 42.97558594 C-42.04877465 48.29145926 -40.35762287 53.54649463 -38.55102539 58.78637695 C-35.43749494 67.83599995 -32.8184479 76.70718062 -31.15234375 86.1484375 C-30.49234375 86.1484375 -29.83234375 86.1484375 -29.15234375 86.1484375 C-29.06597656 85.09269531 -28.97960937 84.03695312 -28.890625 82.94921875 C-27.91172257 72.25828435 -25.9133856 62.09592714 -23.2734375 51.6953125 C-22.38619895 48.19816783 -21.67207618 44.72232793 -21.15234375 41.1484375 C-19.83234375 41.4784375 -18.51234375 41.8084375 -17.15234375 42.1484375 C-18.03871762 46.2848489 -18.94149178 50.3866787 -20.0703125 54.46484375 C-25.23009325 73.42357839 -26.7032863 92.5593689 -26.15234375 112.1484375 C-23.2864021 108.60656622 -21.15451213 104.72092165 -19.02734375 100.7109375 C-18.44400269 99.61168945 -18.44400269 99.61168945 -17.84887695 98.49023438 C-13.46118221 90.05486701 -9.80100619 81.31841741 -6.16674805 72.53857422 C-5.19988135 70.26044546 -4.16673136 68.02403032 -3.12109375 65.78125 C-0.69626068 60.35830064 0.90907582 54.72711832 2.53515625 49.0234375 C2.84259766 47.97800781 3.15003906 46.93257812 3.46679688 45.85546875 C6.43837859 35.56872418 9.62599615 22.53311193 5.72265625 12.0859375 C3.41087261 8.46414313 1.53285626 6.40050417 -2.15234375 4.1484375 C-9.04253933 2.94538748 -14.0499419 5.14995335 -20.30615234 7.79101562 Z M15.84765625 24.1484375 C14.5007571 26.71943152 14.5007571 26.71943152 13.84765625 29.1484375 C13.18765625 29.1484375 12.52765625 29.1484375 11.84765625 29.1484375 C11.533125 30.28539062 11.21859375 31.42234375 10.89453125 32.59375 C10.00206808 35.81735224 9.10561215 39.03981679 8.20703125 42.26171875 C7.39501559 45.17332642 6.59287471 48.08675608 5.80078125 51.00390625 C2.64168865 62.46209047 -1.56999261 73.26296591 -6.74145508 83.94897461 C-8.50396865 87.61558317 -9.94807315 91.26273681 -11.15234375 95.1484375 C-7.18919077 91.43915197 -4.21805237 87.57298255 -1.27734375 83.0234375 C-0.84824707 82.36835205 -0.41915039 81.7132666 0.02294922 81.03833008 C0.88999804 79.71156103 1.75413635 78.38288502 2.61523438 77.05224609 C3.75322401 75.29431361 4.90064636 73.54296757 6.05078125 71.79296875 C9.4275466 67.30776338 9.4275466 67.30776338 10.84765625 62.1484375 C12.16765625 62.1484375 13.48765625 62.1484375 14.84765625 62.1484375 C12.63139939 67.69273684 9.90989275 72.69088308 6.78515625 77.7734375 C6.30780029 78.55380371 5.83044434 79.33416992 5.33862305 80.13818359 C0.96038561 87.17939838 -3.92033805 93.72476022 -9.15234375 100.1484375 C-5.66112956 100.1484375 -5.41261143 99.79856648 -3.03515625 97.46484375 C-2.43453369 96.87566162 -1.83391113 96.28647949 -1.21508789 95.67944336 C-0.57563232 95.02983643 0.06382324 94.38022949 0.72265625 93.7109375 C1.38595947 93.04006104 2.0492627 92.36918457 2.73266602 91.67797852 C16.72097015 77.23289982 33.56878863 57.36849089 34.28515625 36.3359375 C34.07891553 31.57177698 33.3202769 28.24105098 30.84765625 24.1484375 C28.28182054 22.05525574 26.6068147 21.26231127 23.34765625 20.7734375 C20.16524778 21.25079877 18.38064016 22.16312579 15.84765625 24.1484375 Z M-88.15234375 36.1484375 C-89.53901863 38.92178725 -89.1287322 41.43698305 -89.03710938 44.47167969 C-88.80781082 52.56839763 -89.26513112 59.05526816 -92.2421875 66.6953125 C-93.54867998 70.2166742 -93.84625771 72.44756305 -93.15234375 76.1484375 C-89.42286248 79.84260171 -85.54154038 81.15144678 -80.58984375 82.4609375 C-68.62181692 85.96184457 -59.77479723 91.99551003 -50.8671875 100.546875 C-47.73161177 103.55161376 -44.47491135 106.3544602 -41.15234375 109.1484375 C-42.47018672 105.13281127 -43.93318225 103.15108181 -47.21484375 100.5234375 C-51.68759456 96.71623201 -55.24067521 92.54417156 -58.89453125 87.9609375 C-65.74930486 79.31333992 -65.74930486 79.31333992 -74.15234375 72.2734375 C-77.15234375 70.1484375 -77.15234375 70.1484375 -77.83984375 68.015625 C-77.94296875 67.39945313 -78.04609375 66.78328125 -78.15234375 66.1484375 C-70.34760011 69.11424008 -65.29163375 73.64874721 -60.15234375 80.1484375 C-59.65734375 79.1584375 -59.65734375 79.1584375 -59.15234375 78.1484375 C-60.2774931 75.49869553 -61.46565846 72.92663677 -62.71484375 70.3359375 C-66.74686629 61.67586973 -69.46438113 52.90848838 -71.92578125 43.6953125 C-73.34186619 38.35973975 -73.34186619 38.35973975 -75.15234375 33.1484375 C-80.45052795 30.4993454 -84.16083755 32.27097433 -88.15234375 36.1484375 Z M50.84765625 90.1484375 C49.73580603 92.9834412 49.15671366 95.84847449 48.59765625 98.8359375 C48.4378125 99.58810547 48.27796875 100.34027344 48.11328125 101.11523438 C46.08322339 111.05405931 45.66607643 120.89992681 45.66015625 131.0234375 C45.64791016 132.11785156 45.63566406 133.21226562 45.62304688 134.33984375 C45.60547303 144.23977639 46.8427369 153.70440526 49.84765625 163.1484375 C50.50765625 163.1484375 51.16765625 163.1484375 51.84765625 163.1484375 C54.00344187 151.8671904 54.44805907 140.60193226 54.84765625 129.1484375 C56.16765625 129.1484375 57.48765625 129.1484375 58.84765625 129.1484375 C57.88410272 147.96848306 57.88410272 147.96848306 56.84765625 157.1484375 C59.680697 153.98850743 61.68985137 150.69025452 63.66015625 146.9609375 C66.25985829 142.05408301 69.22900309 137.60657218 72.52734375 133.14453125 C74.03155067 131.26929355 74.03155067 131.26929355 73.84765625 129.1484375 C74.50765625 129.1484375 75.16765625 129.1484375 75.84765625 129.1484375 C76.48703125 128.1584375 77.12640625 127.1684375 77.78515625 126.1484375 C78.46578125 125.1584375 79.14640625 124.1684375 79.84765625 123.1484375 C80.83765625 123.1484375 81.82765625 123.1484375 82.84765625 123.1484375 C82.24371448 126.21664726 81.29436725 128.22266373 79.44140625 130.73046875 C78.94890381 131.40811279 78.45640137 132.08575684 77.94897461 132.78393555 C77.42053955 133.50234619 76.89210449 134.22075684 76.34765625 134.9609375 C72.26214531 140.62584495 68.35892826 146.33330726 64.78515625 152.3359375 C64.42808594 152.93446533 64.07101562 153.53299316 63.703125 154.1496582 C61.59327467 157.7419827 59.53060486 161.33559328 57.84765625 165.1484375 C58.17765625 165.8084375 58.50765625 166.4684375 58.84765625 167.1484375 C68.08810248 161.01489068 76.89790079 154.92872143 84.84765625 147.1484375 C85.5953125 146.44589844 86.34296875 145.74335938 87.11328125 145.01953125 C89.07425786 143.3291871 89.07425786 143.3291871 88.84765625 141.1484375 C89.50765625 141.1484375 90.16765625 141.1484375 90.84765625 141.1484375 C97.6069385 132.28807715 101.58295817 124.13623833 101.2578125 112.92578125 C100.6006145 108.47561196 99.31291984 107.02386899 95.84765625 104.1484375 C89.89061824 101.13661828 84.5726753 100.48305435 77.98828125 99.9765625 C73.59246885 99.5669169 70.36716704 99.05445559 66.84765625 96.1484375 C65.4765625 93.703125 65.4765625 93.703125 64.41015625 91.0234375 C62.60311622 86.96602655 62.60311622 86.96602655 58.84765625 84.7109375 C54.65088066 85.32296727 53.50767297 86.87848064 50.84765625 90.1484375 Z M34.84765625 93.1484375 C28.9523799 107.83101256 28.80799882 127.87203181 32.84765625 143.1484375 C33.09257812 144.12039062 33.3375 145.09234375 33.58984375 146.09375 C35.86422276 153.9635039 39.71286611 159.81719141 44.84765625 166.1484375 C45.68867833 164.51358431 45.68867833 164.51358431 45.84765625 162.1484375 C44.85162859 159.59977848 43.7952713 157.22302495 42.59765625 154.7734375 C37.21075032 143.09249728 34.92048582 131.03927111 34.84765625 118.1484375 C35.84765625 116.1484375 35.84765625 116.1484375 38.84765625 115.1484375 C38.83025391 116.57736328 38.83025391 116.57736328 38.8125 118.03515625 C38.80347656 119.28941406 38.79445313 120.54367188 38.78515625 121.8359375 C38.77355469 123.07730469 38.76195312 124.31867188 38.75 125.59765625 C38.83286952 128.61079204 39.13926176 131.23119089 39.84765625 134.1484375 C40.17765625 134.1484375 40.50765625 134.1484375 40.84765625 134.1484375 C40.90300537 133.44759033 40.95835449 132.74674316 41.01538086 132.0246582 C41.26890352 128.83649865 41.52698401 125.64872377 41.78515625 122.4609375 C41.91567383 120.80674805 41.91567383 120.80674805 42.04882812 119.11914062 C42.13583984 118.05244141 42.22285156 116.98574219 42.3125 115.88671875 C42.39105225 114.90743408 42.46960449 113.92814941 42.55053711 112.91918945 C42.83386377 110.2770578 43.29963137 107.7466506 43.84765625 105.1484375 C44.51432292 101.6484375 44.51432292 101.6484375 43.84765625 98.1484375 C41.78381192 95.99274669 39.52269819 94.46174995 36.84765625 93.1484375 C36.18765625 93.1484375 35.52765625 93.1484375 34.84765625 93.1484375 Z M-41.15234375 109.1484375 C-40.49234375 109.8084375 -39.83234375 110.4684375 -39.15234375 111.1484375 C-39.15234375 110.4884375 -39.15234375 109.8284375 -39.15234375 109.1484375 C-39.81234375 109.1484375 -40.47234375 109.1484375 -41.15234375 109.1484375 Z M103.84765625 126.1484375 C101.82269561 128.79307418 101.82269561 128.79307418 100.47265625 132.0859375 C93.69222427 145.79815039 83.09974802 155.33494369 70.84765625 164.1484375 C72.85145653 165.43365166 72.85145653 165.43365166 75.17578125 164.46875 C82.04719811 161.65771583 88.11577807 158.28759592 94.21386719 154.09619141 C98.55385835 151.1484375 98.55385835 151.1484375 101.84765625 151.1484375 C101.84765625 152.1384375 101.84765625 153.1284375 101.84765625 154.1484375 C100.30639648 155.45117188 100.30639648 155.45117188 98.15625 156.7421875 C97.37572266 157.21527344 96.59519531 157.68835938 95.79101562 158.17578125 C94.96408203 158.66175781 94.13714844 159.14773437 93.28515625 159.6484375 C92.48529297 160.13441406 91.68542969 160.62039062 90.86132812 161.12109375 C86.30344006 163.85210586 81.78552999 166.18654404 76.84765625 168.1484375 C81.77850506 170.03306481 85.704882 167.67546948 90.3359375 165.79296875 C103.47027607 159.64218284 117.99846473 148.98414192 123.671875 135.13671875 C124.24438591 133.1248159 124.24438591 133.1248159 123.84765625 130.1484375 C121.69333286 127.4700895 119.92256786 125.68589331 116.84765625 124.1484375 C112.11739834 123.81841951 108.27044225 124.43257404 103.84765625 126.1484375 Z M-72.15234375 154.1484375 C-80.53761063 190.37604685 -73.59868124 231.0981036 -54.046875 262.4765625 C-52.26403714 264.99091528 -50.4034279 267.05208419 -48.15234375 269.1484375 C-38.0404658 241.68175506 -44.26293232 207.82789751 -55.53125 181.53515625 C-60.0392014 172.11733971 -65.08441995 162.66245085 -71.15234375 154.1484375 C-71.48234375 154.1484375 -71.81234375 154.1484375 -72.15234375 154.1484375 Z M-40.15234375 253.1484375 C-39.15234375 255.1484375 -39.15234375 255.1484375 -39.15234375 255.1484375 Z M-136.15234375 265.1484375 C-140.86129272 293.40213131 -133.87541335 326.57174854 -117.51171875 350.0390625 C-114.69836967 353.74672122 -111.78180462 357.3445227 -108.77734375 360.8984375 C-108.25317871 361.51976562 -107.72901367 362.14109375 -107.18896484 362.78125 C-105.89008092 364.27875687 -104.52631291 365.71950957 -103.15234375 367.1484375 C-102.49234375 367.1484375 -101.83234375 367.1484375 -101.15234375 367.1484375 C-101.15234375 367.8084375 -101.15234375 368.4684375 -101.15234375 369.1484375 C-98.68907663 370.7931049 -98.68907663 370.7931049 -96.15234375 372.1484375 C-98.00330466 353.61120213 -101.34931121 334.87334641 -107.15234375 317.1484375 C-107.39178711 316.39788086 -107.63123047 315.64732422 -107.87792969 314.87402344 C-113.66957597 296.8469041 -121.55991545 279.56208476 -134.15234375 265.1484375 C-134.81234375 265.1484375 -135.47234375 265.1484375 -136.15234375 265.1484375 Z M-45.15234375 293.1484375 C-46.25835937 293.84710938 -47.364375 294.54578125 -48.50390625 295.265625 C-49.37789062 295.88695312 -50.251875 296.50828125 -51.15234375 297.1484375 C-51.15234375 297.8084375 -51.15234375 298.4684375 -51.15234375 299.1484375 C-51.7246875 299.41398437 -52.29703125 299.67953125 -52.88671875 299.953125 C-55.25994495 301.20520641 -57.27447661 302.6420727 -59.40234375 304.2734375 C-60.10875 304.81226563 -60.81515625 305.35109375 -61.54296875 305.90625 C-62.0740625 306.31617188 -62.60515625 306.72609375 -63.15234375 307.1484375 C-62.82234375 307.8084375 -62.49234375 308.4684375 -62.15234375 309.1484375 C-37.71314476 315.46287169 -11.49432654 308.45806679 9.84765625 296.1484375 C21.24706238 288.88776048 31.27927163 279.57951443 39.84765625 269.1484375 C39.84765625 268.8184375 39.84765625 268.4884375 39.84765625 268.1484375 C7.78672 267.74933871 -18.62476175 274.79462026 -45.15234375 293.1484375 Z " fill="#072F22" transform="translate(257.15234375,0.8515625)"/>
<path d="M0 0 C3.28390121 3.28390121 5.50030679 7.34446883 7.8515625 11.328125 C8.90864714 13.15600412 8.90864714 13.15600412 11 14 C13.37312186 14.15666086 15.7487828 14.27579411 18.125 14.375 C26.26415129 14.82631604 33.00286156 16.00286156 39 22 C43.45814998 27.90403646 43.4724049 32.74333579 43 40 C43.845625 39.649375 44.69125 39.29875 45.5625 38.9375 C50.67675407 37.54270344 54.36087736 38.36956821 59.25 40.25 C62.44082083 42.28052235 63.59691757 43.49229391 65 47 C65.85205067 55.8045236 62.57161415 61.56427313 57.40234375 68.49609375 C56.93957031 68.99238281 56.47679687 69.48867187 56 70 C55.34 70 54.68 70 54 70 C53.505 71.485 53.505 71.485 53 73 C52.34 73 51.68 73 51 73 C51 73.66 51 74.32 51 75 C33.95773765 89.20614373 14.18064241 96.28376708 -8 95 C-8 94.67 -8 94.34 -8 94 C-7.28972656 93.95101562 -6.57945312 93.90203125 -5.84765625 93.8515625 C-4.46900391 93.73941406 -4.46900391 93.73941406 -3.0625 93.625 C-2.14597656 93.55539063 -1.22945313 93.48578125 -0.28515625 93.4140625 C0.46894531 93.27742188 1.22304688 93.14078125 2 93 C2.33 92.34 2.66 91.68 3 91 C3.66 91 4.32 91 5 91 C5 90.34 5 89.68 5 89 C5.99 89 6.98 89 8 89 C8 88.34 8 87.68 8 87 C6.515 86.505 6.515 86.505 5 86 C5 85.34 5 84.68 5 84 C4.34 83.67 3.68 83.34 3 83 C2.505 82.01 2.505 82.01 2 81 C2.90621094 80.38253906 3.81242187 79.76507813 4.74609375 79.12890625 C17.02156251 71.14642955 17.02156251 71.14642955 26 60 C26.66 60 27.32 60 28 60 C28.226875 59.360625 28.45375 58.72125 28.6875 58.0625 C30.15281065 54.64344182 31.92284169 51.49946926 33.78125 48.28125 C37.22157048 41.84167577 37.79419935 36.24832574 37 29 C34.58443804 24.26549855 30.89550422 22.61085542 26 21 C22.40502799 20.34510363 18.78043731 20.10811056 15.140625 19.828125 C10.72664668 19.41678652 7.57192023 18.85883271 4 16 C2.41796875 13.80859375 2.41796875 13.80859375 1.1875 11.4375 C0.76855469 10.65246094 0.34960938 9.86742188 -0.08203125 9.05859375 C-1 7 -1 7 -1 5 C-4.94727588 4.82057837 -7.5980513 4.90649311 -11 7 C-11.99 6.34 -12.98 5.68 -14 5 C-14 4.34 -14 3.68 -14 3 C-13.34 3 -12.68 3 -12 3 C-12 2.34 -12 1.68 -12 1 C-7.58888522 -0.78545122 -4.58949238 -1.4965736 0 0 Z M41 45 C38.97503936 47.64463668 38.97503936 47.64463668 37.625 50.9375 C30.84456802 64.64971289 20.25209177 74.18650619 8 83 C10.00380028 84.28521416 10.00380028 84.28521416 12.328125 83.3203125 C19.19954186 80.50927833 25.26812182 77.13915842 31.36621094 72.94775391 C35.7062021 70 35.7062021 70 39 70 C39 70.99 39 71.98 39 73 C37.45874023 74.30273438 37.45874023 74.30273438 35.30859375 75.59375 C34.52806641 76.06683594 33.74753906 76.53992188 32.94335938 77.02734375 C32.11642578 77.51332031 31.28949219 77.99929687 30.4375 78.5 C29.63763672 78.98597656 28.83777344 79.47195312 28.01367188 79.97265625 C23.45578381 82.70366836 18.93787374 85.03810654 14 87 C18.93084881 88.88462731 22.85722575 86.52703198 27.48828125 84.64453125 C40.62261982 78.49374534 55.15080848 67.83570442 60.82421875 53.98828125 C61.39672966 51.9763784 61.39672966 51.9763784 61 49 C58.84567661 46.321652 57.07491161 44.53745581 54 43 C49.26974209 42.66998201 45.422786 43.28413654 41 45 Z " fill="#072E21" transform="translate(320,82)"/>
<path d="M0 0 C4.18477368 1.52260644 6.23129957 4.54028241 8.6875 8.0625 C9.12102783 8.6810083 9.55455566 9.2995166 10.0012207 9.93676758 C28.24943437 36.60059679 35.77651602 66.9471443 35 99 C34.34 99 33.68 99 33 99 C32.67 99.66 32.34 100.32 32 101 C31.01 100.505 31.01 100.505 30 100 C29.94392578 98.02193359 29.94392578 98.02193359 29.88671875 96.00390625 C29.4905906 84.41634393 28.4542225 73.33055573 26 62 C25.86223145 61.33162109 25.72446289 60.66324219 25.58251953 59.97460938 C21.91492849 42.42105223 14.25189603 24.10047731 3 10 C-1.49303832 14.49303832 0.03784618 31.05802928 -0.04052734 37.15039062 C0.09295288 51.43956184 1.06134483 65.97092418 5.09765625 79.74609375 C6 83 6 83 6 87 C4.02 87.99 4.02 87.99 2 89 C-0.07619696 84.41002197 -1.04745712 79.71789735 -2.0625 74.8125 C-2.23587891 74.01263672 -2.40925781 73.21277344 -2.58789062 72.38867188 C-4.94776548 61.13179758 -5.23656584 49.96105997 -5.25 38.5 C-5.25167175 37.74798309 -5.25334351 36.99596619 -5.25506592 36.22116089 C-5.25884208 7.88826312 -5.25884208 7.88826312 0 0 Z " fill="#072D20" transform="translate(183,147)"/>
<path d="M0 0 C0.99 0.33 1.98 0.66 3 1 C4.34771893 3.73727392 5.53991003 6.43024002 6.6875 9.25 C12.32168593 22.57275116 12.32168593 22.57275116 21 34 C24.94519471 28.08220793 25.38930341 20.94265598 26 14 C26.66 14 27.32 14 28 14 C28.33 13.01 28.66 12.02 29 11 C29.66 11.33 30.32 11.66 31 12 C31.495 13.98 31.495 13.98 32 16 C33.32 13.36 34.64 10.72 36 8 C37.65 8 39.3 8 41 8 C40.34 10.64 39.68 13.28 39 16 C39.928125 15.01 40.85625 14.02 41.8125 13 C43.39453125 11.3125 43.39453125 11.3125 45 10 C45.99 10 46.98 10 48 10 C47.38983051 15.49152542 47.38983051 15.49152542 45.5625 17.875 C44 19 44 19 42 19 C41.61908203 19.86431641 41.61908203 19.86431641 41.23046875 20.74609375 C39.86303842 23.25087882 38.2779126 24.99669305 36.3125 27.0625 C27.06814573 37.3174378 20.82927815 50.07241803 14 62 C14.92039063 61.36578125 15.84078125 60.7315625 16.7890625 60.078125 C19.85170011 58.09597998 22.51250803 56.99642628 26 56 C26.33 56.66 26.66 57.32 27 58 C26.50628906 58.32613281 26.01257813 58.65226562 25.50390625 58.98828125 C24.86324219 59.42527344 24.22257812 59.86226563 23.5625 60.3125 C22.92441406 60.74175781 22.28632813 61.17101562 21.62890625 61.61328125 C19.7114316 63.0034052 19.7114316 63.0034052 19 66 C17.58203125 67.28125 17.58203125 67.28125 15.8125 68.5 C14.86697266 69.15162109 14.86697266 69.15162109 13.90234375 69.81640625 C12 71 12 71 8.875 72.4375 C6.17779467 73.90337246 5.15652189 74.80758741 3.3125 77.125 C1 80 1 80 -2 81 C-1.44904266 76.01238615 0.87573844 72.43991831 3.4375 68.25 C4.34006277 66.74622518 5.24239944 65.24231464 6.14453125 63.73828125 C6.61197754 62.96436035 7.07942383 62.19043945 7.56103516 61.39306641 C9.94646446 57.42598496 12.28351817 53.43061958 14.625 49.4375 C15.47112947 47.99856577 16.31746264 46.55975128 17.1640625 45.12109375 C17.76992187 44.09113281 18.37578125 43.06117188 19 42 C18.64808594 41.47792969 18.29617187 40.95585937 17.93359375 40.41796875 C16.2793246 37.95168237 14.63899428 35.47646285 13 33 C12.4121875 32.12214844 11.824375 31.24429687 11.21875 30.33984375 C5.33810759 21.37702253 1.18347333 12.2206249 -2 2 C-1.34 1.34 -0.68 0.68 0 0 Z M30 20 C31 22 31 22 31 22 Z " fill="#082F22" transform="translate(187,234)"/>
<path d="M0 0 C1.65 0 3.3 0 5 0 C4.34 2.64 3.68 5.28 3 8 C3.928125 7.01 4.85625 6.02 5.8125 5 C7.39453125 3.3125 7.39453125 3.3125 9 2 C9.99 2 10.98 2 12 2 C11.38983051 7.49152542 11.38983051 7.49152542 9.5625 9.875 C8 11 8 11 6 11 C5.74863281 11.56203125 5.49726563 12.1240625 5.23828125 12.703125 C3.81148741 15.34967004 2.14055514 17.4645894 0.1875 19.75 C-0.47894531 20.54921875 -1.14539063 21.3484375 -1.83203125 22.171875 C-4 24 -4 24 -6.57421875 24.515625 C-9 24 -9 24 -10.86328125 22.453125 C-12.48911399 18.94445504 -11.85079539 16.52031062 -11.1875 12.75 C-10.97480469 11.48671875 -10.76210937 10.2234375 -10.54296875 8.921875 C-10.36378906 7.95765625 -10.18460938 6.9934375 -10 6 C-9.34 6 -8.68 6 -8 6 C-7.67 5.01 -7.34 4.02 -7 3 C-6.34 3.33 -5.68 3.66 -5 4 C-4.67 5.32 -4.34 6.64 -4 8 C-2.68 5.36 -1.36 2.72 0 0 Z M-6 12 C-5 14 -5 14 -5 14 Z " fill="#1C3E34" transform="translate(223,242)"/>
<path d="M0 0 C0.99 0.33 1.98 0.66 3 1 C4.34771893 3.73727392 5.53991003 6.43024002 6.6875 9.25 C12.32168593 22.57275116 12.32168593 22.57275116 21 34 C21.99 32.02 22.98 30.04 24 28 C25.5 29.375 25.5 29.375 27 31 C27 31.66 27 32.32 27 33 C26.34 33.66 25.68 34.32 25 35 C25 35.66 25 36.32 25 37 C24.01 37 23.02 37 22 37 C22 38.32 22 39.64 22 41 C19.15703876 40.6578493 18.16672412 40.1913411 16.25390625 37.99609375 C15.69574219 37.15175781 15.13757813 36.30742187 14.5625 35.4375 C13.95792969 34.52742188 13.35335937 33.61734375 12.73046875 32.6796875 C12.15941406 31.79539062 11.58835938 30.91109375 11 30 C10.54238281 29.32195312 10.08476562 28.64390625 9.61328125 27.9453125 C4.3376383 19.92367244 0.84434126 11.13183247 -2 2 C-1.34 1.34 -0.68 0.68 0 0 Z " fill="#0B3324" transform="translate(187,234)"/>
<path d="M0 0 C1.48239733 0.02012671 2.96482151 0.03836642 4.44726562 0.0546875 C8.02791554 0.09812369 11.60752675 0.1667969 15.1875 0.25 C15.8125 2.125 15.8125 2.125 16.1875 4.25 C15.5275 4.91 14.8675 5.57 14.1875 6.25 C12.8675 6.25 11.5475 6.25 10.1875 6.25 C9.8575 6.91 9.5275 7.57 9.1875 8.25 C9.1875 6.93 9.1875 5.61 9.1875 4.25 C8.39166504 4.31058594 7.59583008 4.37117188 6.77587891 4.43359375 C3.1216986 4.70958122 -0.53288526 4.97982868 -4.1875 5.25 C-5.43917969 5.34539062 -6.69085938 5.44078125 -7.98046875 5.5390625 C-14.94001043 6.04918597 -21.83394775 6.3966168 -28.8125 6.25 C-29.1425 5.59 -29.4725 4.93 -29.8125 4.25 C-19.58661122 0.31790361 -10.7992728 -0.25878217 0 0 Z " fill="#083021" transform="translate(287.8125,264.75)"/>
<path d="M0 0 C4.875 1.875 4.875 1.875 6 3 C7.08861328 2.9071875 7.08861328 2.9071875 8.19921875 2.8125 C12.02798283 3.06881893 13.80122813 4.67805543 16.8125 7 C17.78832031 7.7425 18.76414063 8.485 19.76953125 9.25 C20.50558594 9.8275 21.24164063 10.405 22 11 C21.67 12.32 21.34 13.64 21 15 C17.272035 14.3493646 14.64943324 12.67559252 11.5 10.625 C10.09234375 9.71621094 10.09234375 9.71621094 8.65625 8.7890625 C3.79077323 5.51202079 3.79077323 5.51202079 2 4 C2 3.34 2 2.68 2 2 C1.34 2 0.68 2 0 2 C0 1.34 0 0.68 0 0 Z " fill="#093225" transform="translate(180,85)"/>
<path d="M0 0 C2 2 2 2 2 5 C2.99 5.33 3.98 5.66 5 6 C5 6.66 5 7.32 5 8 C1.53846154 11 1.53846154 11 -1 11 C-1.226875 11.53625 -1.45375 12.0725 -1.6875 12.625 C-3.96544882 16.74700263 -6.40118471 20.46706157 -11 22 C-10.49844814 16.67501327 -7.65564273 12.64794605 -4.9375 8.1875 C-4.46505859 7.39923828 -3.99261719 6.61097656 -3.50585938 5.79882812 C-2.34368685 3.86187392 -1.17495583 1.92921705 0 0 Z M2 0 C4 1 4 1 4 1 Z " fill="#0F382A" transform="translate(196,293)"/>
<path d="M0 0 C5.96418214 0.80084424 9.65604578 4.02431935 14 8 C16.0625 10.9375 16.0625 10.9375 17 13 C16.01 13.99 15.02 14.98 14 16 C13.57589844 15.55269531 13.15179688 15.10539062 12.71484375 14.64453125 C9.66516322 11.50101439 6.73780211 8.71269729 3.0625 6.3125 C1.5465625 5.1678125 1.5465625 5.1678125 0 4 C0 2.68 0 1.36 0 0 Z " fill="#073022" transform="translate(179,67)"/>
<path d="M0 0 C3.96 0 7.92 0 12 0 C12.33 1.32 12.66 2.64 13 4 C12.34 4.66 11.68 5.32 11 6 C9.68 6 8.36 6 7 6 C6.67 6.66 6.34 7.32 6 8 C6 6.68 6 5.36 6 4 C3.69 4 1.38 4 -1 4 C-0.67 2.68 -0.34 1.36 0 0 Z " fill="#0D3225" transform="translate(291,265)"/>
<path d="M0 0 C6.59904729 1.52785824 12.87389209 3.07617577 19 6 C17.02 6.99 17.02 6.99 15 8 C14.67 7.34 14.34 6.68 14 6 C13.34 6 12.68 6 12 6 C12.33 6.99 12.66 7.98 13 9 C11.01853549 8.55170486 9.03985789 8.09107502 7.0625 7.625 C5.96035156 7.36976562 4.85820312 7.11453125 3.72265625 6.8515625 C2.37494141 6.43003906 2.37494141 6.43003906 1 6 C0.67 5.34 0.34 4.68 0 4 C0.99 4 1.98 4 3 4 C3 3.34 3 2.68 3 2 C2.01 2 1.02 2 0 2 C0 1.34 0 0.68 0 0 Z " fill="#04291C" transform="translate(170,81)"/>
<path d="M0 0 C0.66 0 1.32 0 2 0 C2 1.32 2 2.64 2 4 C4.64 4 7.28 4 10 4 C9.1875 5.9375 9.1875 5.9375 8 8 C4.52674819 9.1577506 1.63932552 9.06866652 -2 9 C-2.33 8.01 -2.66 7.02 -3 6 C-2.34 5.34 -1.68 4.68 -1 4 C-1 3.01 -1 2.02 -1 1 C-0.67 0.67 -0.34 0.34 0 0 Z " fill="#0B3527" transform="translate(332,166)"/>
<path d="M0 0 C0.66 0 1.32 0 2 0 C2.1953125 1.98567708 2.390625 3.97135417 2.5859375 5.95703125 C2.92665391 8.29988142 2.92665391 8.29988142 5 11 C5.125 13.6875 5.125 13.6875 5 16 C3.33388095 16.042721 1.66617115 16.04063832 0 16 C-0.33 15.67 -0.66 15.34 -1 15 C-0.90913549 12.46458702 -0.7629055 9.96445216 -0.5625 7.4375 C-0.51029297 6.72658203 -0.45808594 6.01566406 -0.40429688 5.28320312 C-0.27425893 3.52178001 -0.13773103 1.76083827 0 0 Z " fill="#5C7E73" transform="translate(214,250)"/>
<path d="M0 0 C-0.61016949 5.49152542 -0.61016949 5.49152542 -2.4375 7.875 C-4 9 -4 9 -6 9 C-6.33 9.99 -6.66 10.98 -7 12 C-7.66 11.67 -8.32 11.34 -9 11 C-9.375 8.875 -9.375 8.875 -9 6 C-6.4468806 2.53910481 -4.42778843 0 0 0 Z " fill="#58736A" transform="translate(235,244)"/>
<path d="M0 0 C0.66 0.33 1.32 0.66 2 1 C2.125 8.75 2.125 8.75 1 11 C1.66 11 2.32 11 3 11 C3 12.65 3 14.3 3 16 C1.5 15 1.5 15 0 13 C-0.27345479 10.28153765 -0.13491285 7.74322801 0 5 C-0.66 5 -1.32 5 -2 5 C-1.979375 6.216875 -1.95875 7.43375 -1.9375 8.6875 C-1.93175884 11.91977322 -2.21233685 14.84934741 -3 18 C-3.66 17.67 -4.32 17.34 -5 17 C-4.34 12.38 -3.68 7.76 -3 3 C-2.34 3 -1.68 3 -1 3 C-0.67 2.01 -0.34 1.02 0 0 Z " fill="#415D55" transform="translate(216,245)"/>
<path d="M0 0 C1.20628008 2.33214148 2.1654738 4.49642139 3 7 C3.99 7.33 4.98 7.66 6 8 C6.73046875 10.06640625 6.73046875 10.06640625 7.1875 12.5625 C7.34605469 13.38878906 7.50460937 14.21507812 7.66796875 15.06640625 C7.77753906 15.70449219 7.88710938 16.34257812 8 17 C7.34 16.67 6.68 16.34 6 16 C5.375 12.9375 5.375 12.9375 5 10 C4.34 10 3.68 10 3 10 C3.495 11.216875 3.99 12.43375 4.5 13.6875 C5.72479441 16.92486738 6.32803185 19.50099357 6 23 C3.33975514 20.33975514 2.91017842 17.9202885 1.875 14.3125 C1.52179688 13.11238281 1.16859375 11.91226563 0.8046875 10.67578125 C-0.00119611 6.99453621 -0.14460221 3.7548373 0 0 Z " fill="#03271D" transform="translate(284,133)"/>
<path d="M0 0 C-1.2419607 3.43927579 -2.55740284 6.25207819 -5 9 C-5.66 9 -6.32 9 -7 9 C-7.33 9.99 -7.66 10.98 -8 12 C-8.66 12 -9.32 12 -10 12 C-10.33 11.01 -10.66 10.02 -11 9 C-10.34 9 -9.68 9 -9 9 C-9 7.68 -9 6.36 -9 5 C-8.01 5 -7.02 5 -6 5 C-6.33 4.01 -6.66 3.02 -7 2 C-4 0 -4 0 0 0 Z " fill="#093728" transform="translate(218,266)"/>
<path d="M0 0 C0.84304687 0.42925781 0.84304687 0.42925781 1.703125 0.8671875 C4.02870923 2.01415931 6.37770201 3.07839794 8.75 4.125 C9.54921875 4.47820312 10.3484375 4.83140625 11.171875 5.1953125 C11.77515625 5.46085937 12.3784375 5.72640625 13 6 C12.67 7.32 12.34 8.64 12 10 C7.97488247 9.38075115 5.17351179 7.48361793 2 5 C0.625 2.25 0.625 2.25 0 0 Z " fill="#10352B" transform="translate(189,90)"/>
<path d="M0 0 C0.66 0.33 1.32 0.66 2 1 C-0.55573961 4.0171926 -3.38380793 5.2432533 -7 6.75 C-8.051875 7.19859375 -9.10375 7.6471875 -10.1875 8.109375 C-13 9 -13 9 -16 8 C-15.34 7.01 -14.68 6.02 -14 5 C-13.13375 4.855625 -12.2675 4.71125 -11.375 4.5625 C-7.6075434 3.93459057 -5.03021288 2.59449949 -1.734375 0.7421875 C-1.16203125 0.49726563 -0.5896875 0.25234375 0 0 Z " fill="#083626" transform="translate(261,301)"/>
<path d="M0 0 C0.66 0.99 1.32 1.98 2 3 C2.680625 2.2575 2.680625 2.2575 3.375 1.5 C5 0 5 0 7 0 C7 0.66 7 1.32 7 2 C6.236875 2.556875 5.47375 3.11375 4.6875 3.6875 C1.31438066 6.58995152 0.51014985 8.86695832 -1 13 C-1.144375 12.360625 -1.28875 11.72125 -1.4375 11.0625 C-1.81007181 9.02454854 -1.81007181 9.02454854 -3 8 C-3.33 7.01 -3.66 6.02 -4 5 C-2.0625 2.3125 -2.0625 2.3125 0 0 Z " fill="#05281C" transform="translate(188,14)"/>
<path d="M0 0 C0.66 0 1.32 0 2 0 C2.35338623 2.96844435 2.5417682 5.15598218 0.88671875 7.734375 C-0.35503168 9.20348819 -1.67337918 10.60704814 -3 12 C-3.66 11.67 -4.32 11.34 -5 11 C-5 9.02 -5 7.04 -5 5 C-4.01 5 -3.02 5 -2 5 C-1.34 3.35 -0.68 1.7 0 0 Z " fill="#0D3125" transform="translate(225,251)"/>
<path d="M0 0 C0.99 0.33 1.98 0.66 3 1 C4.125 7.75 4.125 7.75 3 10 C2.34 10 1.68 10 1 10 C0.01 7.36 -0.98 4.72 -2 2 C-1.34 1.34 -0.68 0.68 0 0 Z " fill="#4F6C63" transform="translate(187,234)"/>
<path d="M0 0 C0.99 0.66 1.98 1.32 3 2 C0.71046156 3.98167622 -1.58149798 5.96042047 -3.875 7.9375 C-4.85146484 8.78344727 -4.85146484 8.78344727 -5.84765625 9.64648438 C-6.47285156 10.18466797 -7.09804687 10.72285156 -7.7421875 11.27734375 C-8.3182373 11.77484131 -8.89428711 12.27233887 -9.48779297 12.78491211 C-11 14 -11 14 -13 15 C-12.3125 12.125 -12.3125 12.125 -11 9 C-8.5625 7.8125 -8.5625 7.8125 -6 7 C-3.56015502 4.99584162 -3.02876045 4.08628136 -2 1 C-1.34 0.67 -0.68 0.34 0 0 Z " fill="#052A1E" transform="translate(252,229)"/>
<path d="M0 0 C0.33 0 0.66 0 1 0 C0.67 10.23 0.34 20.46 0 31 C-0.33 31 -0.66 31 -1 31 C-1.22693321 26.95915379 -1.42824509 22.91741914 -1.625 18.875 C-1.68945312 17.73289062 -1.75390625 16.59078125 -1.8203125 15.4140625 C-1.871875 14.30546875 -1.9234375 13.196875 -1.9765625 12.0546875 C-2.02893066 11.03874512 -2.08129883 10.02280273 -2.13525391 8.97607422 C-1.98523734 5.67516814 -1.17450289 3.07455194 0 0 Z " fill="#022518" transform="translate(165,377)"/>
<path d="M0 0 C3.57104439 1.87949705 5.54744301 3.17053157 7 7 C5.68 7.99 4.36 8.98 3 10 C0.64551835 7.44931155 0.01672076 6.28982642 -0.1875 2.75 C-0.125625 1.8425 -0.06375 0.935 0 0 Z " fill="#0C3628" transform="translate(199,260)"/>
<path d="M0 0 C0.33 0.99 0.66 1.98 1 3 C0.67 3.66 0.34 4.32 0 5 C0.66 5 1.32 5 2 5 C0.44499019 8.81684226 -2.03595495 11.19195732 -5 14 C-5.66 13.67 -6.32 13.34 -7 13 C-5.35 11.02 -3.7 9.04 -2 7 C-2.99 6.67 -3.98 6.34 -5 6 C-3.35 4.02 -1.7 2.04 0 0 Z " fill="#04261A" transform="translate(267,83)"/>
<path d="M0 0 C2.48386059 3.72579089 2.3804212 5.58711402 2 10 C0.5625 12.9375 0.5625 12.9375 -1 15 C-1.33 15 -1.66 15 -2 15 C-1.85973717 12.68715544 -1.71264442 10.37472409 -1.5625 8.0625 C-1.48128906 6.77472656 -1.40007812 5.48695313 -1.31640625 4.16015625 C-1 1 -1 1 0 0 Z " fill="#073525" transform="translate(236,192)"/>
<path d="M0 0 C4.45 8.26428571 4.45 8.26428571 3.125 13.375 C2.75375 14.24125 2.3825 15.1075 2 16 C1.34 16 0.68 16 0 16 C-0.19504458 13.89651926 -0.38078496 11.79217415 -0.5625 9.6875 C-0.66691406 8.51574219 -0.77132812 7.34398437 -0.87890625 6.13671875 C-1 3 -1 3 0 0 Z " fill="#0B3529" transform="translate(235,148)"/>
<path d="M0 0 C0.66 0 1.32 0 2 0 C2.33 0.99 2.66 1.98 3 3 C3.66 3.33 4.32 3.66 5 4 C5 3.34 5 2.68 5 2 C5.66 2 6.32 2 7 2 C7.33 4.31 7.66 6.62 8 9 C7.01 9.66 6.02 10.32 5 11 C4.71125 10.195625 4.4225 9.39125 4.125 8.5625 C3.26737432 5.8673532 3.26737432 5.8673532 1 5 C0.375 2.4375 0.375 2.4375 0 0 Z " fill="#103D2F" transform="translate(200,84)"/>
<path d="M0 0 C0.66 0.66 1.32 1.32 2 2 C0.02 4.64 -1.96 7.28 -4 10 C-4.33 8.68 -4.66 7.36 -5 6 C-5.66 5.67 -6.32 5.34 -7 5 C-4.69 3.35 -2.38 1.7 0 0 Z " fill="#163A2E" transform="translate(240,238)"/>
<path d="M0 0 C4 1 4 1 7 2 C6.67 3.32 6.34 4.64 6 6 C4.35 5.67 2.7 5.34 1 5 C0.34 6.32 -0.32 7.64 -1 9 C-0.67 6.03 -0.34 3.06 0 0 Z " fill="#073727" transform="translate(119,260)"/>
<path d="M0 0 C1.5 1.1875 1.5 1.1875 3 3 C3.27570202 5.82594567 3.27433584 7.45132831 2 10 C1.01 9.67 0.02 9.34 -1 9 C-1.09765625 2.84765625 -1.09765625 2.84765625 -1 1 C-0.67 0.67 -0.34 0.34 0 0 Z " fill="#0F372B" transform="translate(124,319)"/>
<path d="M0 0 C3.33557632 2.9905167 5.15083921 5.93184627 7 10 C6.01 10.495 6.01 10.495 5 11 C5 10.34 5 9.68 5 9 C3.68 8.67 2.36 8.34 1 8 C0.34 5.69 -0.32 3.38 -1 1 C-0.67 0.67 -0.34 0.34 0 0 Z " fill="#0A3426" transform="translate(191,158)"/>
<path d="M0 0 C0.66 1.32 1.32 2.64 2 4 C1.01 5.485 1.01 5.485 0 7 C-0.70812814 9.32108669 -1.38024152 11.65377147 -2 14 C-2.66 13.67 -3.32 13.34 -4 13 C-3.67 10.36 -3.34 7.72 -3 5 C-2.01 5 -1.02 5 0 5 C0 3.35 0 1.7 0 0 Z " fill="#0A3A2C" transform="translate(268,23)"/>
<path d="M0 0 C2.31 1.65 4.62 3.3 7 5 C5.68 6.32 4.36 7.64 3 9 C1.35 7.35 -0.3 5.7 -2 4 C-0.68 4.33 0.64 4.66 2 5 C1.34 3.35 0.68 1.7 0 0 Z " fill="#03271A" transform="translate(201,485)"/>
<path d="M0 0 C2.04795423 1.9626228 2.94976638 3.4277307 3.19921875 6.26953125 C3.18858877 8.51954383 3.12958525 10.75385562 3 13 C2.01 12.67 1.02 12.34 0 12 C-0.19401633 10.18818595 -0.38004375 8.37551468 -0.5625 6.5625 C-0.66691406 5.55316406 -0.77132812 4.54382813 -0.87890625 3.50390625 C-0.91886719 2.67761719 -0.95882812 1.85132813 -1 1 C-0.67 0.67 -0.34 0.34 0 0 Z " fill="#073627" transform="translate(120,303)"/>
<path d="M0 0 C2.97 0 5.94 0 9 0 C9 0.99 9 1.98 9 3 C4.94568308 4.15837626 2.78187881 3.83691257 -1 2 C-0.67 1.34 -0.34 0.68 0 0 Z " fill="#1D3F34" transform="translate(294,265)"/>
<path d="M0 0 C0.33 0 0.66 0 1 0 C1 1.65 1 3.3 1 5 C0.34 4.67 -0.32 4.34 -1 4 C-1.59732819 6.76264289 -2 9.16032769 -2 12 C-2.66 12 -3.32 12 -4 12 C-4.66 9.03 -5.32 6.06 -6 3 C-4.68 2.67 -3.36 2.34 -2 2 C-1.34 1.34 -0.68 0.68 0 0 Z " fill="#143B2F" transform="translate(305,93)"/>
<path d="M0 0 C0.99 0 1.98 0 3 0 C3.99 2.31 4.98 4.62 6 7 C4.34385343 7.38218767 2.67542976 7.71395102 1 8 C0 7 0 7 -0.0625 3.4375 C-0.041875 2.303125 -0.02125 1.16875 0 0 Z " fill="#0E3B2E" transform="translate(160,359)"/>
<path d="M0 0 C0.33 0.99 0.66 1.98 1 3 C-0.81298005 4.81298005 -3.61181698 4.67555005 -6.0625 5.0625 C-7.16722656 5.23910156 -8.27195313 5.41570312 -9.41015625 5.59765625 C-10.26480469 5.73042969 -11.11945313 5.86320312 -12 6 C-12.33 5.01 -12.66 4.02 -13 3 C-12.39671875 2.95101563 -11.7934375 2.90203125 -11.171875 2.8515625 C-10.37265625 2.77679688 -9.5734375 2.70203125 -8.75 2.625 C-7.56664062 2.52058594 -7.56664062 2.52058594 -6.359375 2.4140625 C-3.914123 1.98492887 -2.15163097 1.21399362 0 0 Z " fill="#093526" transform="translate(243,308)"/>
<path d="M0 0 C0.99 0.33 1.98 0.66 3 1 C3.33 4.63 3.66 8.26 4 12 C3.01 12.495 3.01 12.495 2 13 C1.855625 12.195625 1.71125 11.39125 1.5625 10.5625 C1.25864751 8.07896294 1.25864751 8.07896294 0 7 C-0.04092937 4.66702567 -0.04241723 2.33294775 0 0 Z " fill="#0B3728" transform="translate(181,212)"/>
<path d="M0 0 C0.66 0 1.32 0 2 0 C2.67260351 1.76858691 3.33788395 3.53996016 4 5.3125 C4.37125 6.29863281 4.7425 7.28476563 5.125 8.30078125 C6 11 6 11 6 14 C5.01 13.67 4.02 13.34 3 13 C2.19024679 10.30082264 1.53763515 7.75021059 1 5 C0.79375 4.01 0.5875 3.02 0.375 2 C0.25125 1.34 0.1275 0.68 0 0 Z " fill="#0A3528" transform="translate(287,143)"/>
<path d="M0 0 C2.4375 0.6875 2.4375 0.6875 5 2 C5.8125 4.625 5.8125 4.625 6 7 C4.35 6.67 2.7 6.34 1 6 C0.67 4.02 0.34 2.04 0 0 Z " fill="#0A3427" transform="translate(127,268)"/>
<path d="M0 0 C0.99 0.33 1.98 0.66 3 1 C3.08004482 4.5219721 3.04005702 7.61981469 2 11 C1.34 10.67 0.68 10.34 0 10 C-0.89093449 6.35526801 -1.23666047 3.57257469 0 0 Z " fill="#073525" transform="translate(165,37)"/>
<path d="M0 0 C0.99 0 1.98 0 3 0 C2.67 1.65 2.34 3.3 2 5 C-0.31 5.33 -2.62 5.66 -5 6 C-4.67 5.01 -4.34 4.02 -4 3 C-3.01 2.67 -2.02 2.34 -1 2 C-0.67 1.34 -0.34 0.68 0 0 Z " fill="#043424" transform="translate(353,163)"/>
<path d="M0 0 C0.928125 0.2784375 0.928125 0.2784375 1.875 0.5625 C4.04160178 1.23686176 4.04160178 1.23686176 6 0 C6.5625 1.9375 6.5625 1.9375 7 4 C6.67 4.33 6.34 4.66 6 5 C5.63557767 6.66014616 5.30027117 8.32706064 5 10 C2.90217213 7.90217213 2.3490604 6.6200793 1.375 3.875 C1.11460937 3.15054687 0.85421875 2.42609375 0.5859375 1.6796875 C0.39257812 1.12539063 0.19921875 0.57109375 0 0 Z " fill="#032B1F" transform="translate(141,296)"/>
<path d="M0 0 C0.99 0 1.98 0 3 0 C4.65 2.97 6.3 5.94 8 9 C5 9 5 9 2.875 7.3125 C0.83027036 4.79066678 0.35401103 3.18609925 0 0 Z " fill="#083727" transform="translate(132,276)"/>
<path d="M0 0 C2.5 1.6875 2.5 1.6875 5 4 C5.3125 6.75 5.3125 6.75 5 9 C4.34 9 3.68 9 3 9 C2.67 7.68 2.34 6.36 2 5 C1.34 5 0.68 5 0 5 C-0.5625 3.0625 -0.5625 3.0625 -1 1 C-0.67 0.67 -0.34 0.34 0 0 Z " fill="#083425" transform="translate(288,22)"/>
<path d="M0 0 C-0.020625 0.86625 -0.04125 1.7325 -0.0625 2.625 C-0.00261044 5.85903648 0.39580933 8.82799897 1 12 C0.34 11.34 -0.32 10.68 -1 10 C-1 9.01 -1 8.02 -1 7 C-1.66 7 -2.32 7 -3 7 C-3 5.02 -3 3.04 -3 1 C-1 0 -1 0 0 0 Z " fill="#083325" transform="translate(119,291)"/>
<path d="M0 0 C2.78637633 4.1795645 1.79562512 6.14668677 1 11 C0.34 11 -0.32 11 -1 11 C-1.33 7.7 -1.66 4.4 -2 1 C-1.34 0.67 -0.68 0.34 0 0 Z " fill="#0C3429" transform="translate(237,168)"/>
<path d="M0 0 C-3.66651075 3.66651075 -8.02390195 3.96334366 -13 4 C-13.99 3.67 -14.98 3.34 -16 3 C-14.39546187 1.39546187 -12.44259613 1.37537053 -10.25 0.9375 C-9.38890625 0.76089844 -8.5278125 0.58429688 -7.640625 0.40234375 C-5.04751609 0.00723988 -2.61823798 -0.07063592 0 0 Z " fill="#032419" transform="translate(243,308)"/>
<path d="M0 0 C0 0.66 0 1.32 0 2 C-5.50016964 3.30267176 -10.47032059 2.71033431 -16 2 C-16 1.67 -16 1.34 -16 1 C-10.59255982 0.22750855 -5.46137814 -0.09752461 0 0 Z " fill="#0D382A" transform="translate(287,266)"/>
<path d="M0 0 C0.66 0.33 1.32 0.66 2 1 C2.125 8.75 2.125 8.75 1 11 C1.66 11 2.32 11 3 11 C3 12.65 3 14.3 3 16 C1.48046875 14.85546875 1.48046875 14.85546875 0 13 C-0.07421875 10.30078125 -0.07421875 10.30078125 0.3125 7.3125 C0.43238281 6.31863281 0.55226562 5.32476562 0.67578125 4.30078125 C0.78277344 3.54152344 0.88976562 2.78226563 1 2 C0.34 1.67 -0.32 1.34 -1 1 C-0.67 0.67 -0.34 0.34 0 0 Z " fill="#2F534A" transform="translate(216,245)"/>
<path d="M0 0 C0 0.66 0 1.32 0 2 C0.99 2.33 1.98 2.66 3 3 C2.67 3.99 2.34 4.98 2 6 C1.236875 5.484375 0.47375 4.96875 -0.3125 4.4375 C-1.199375 3.963125 -2.08625 3.48875 -3 3 C-3.99 3.33 -4.98 3.66 -6 4 C-5.67 3.01 -5.34 2.02 -5 1 C-3 0 -3 0 0 0 Z " fill="#0B3629" transform="translate(317,81)"/>
<path d="M0 0 C5.02692063 0.45699278 8.14896261 2.99241748 12 6 C11.01 6.33 10.02 6.66 9 7 C8.195625 6.34 7.39125 5.68 6.5625 5 C4.23302802 2.70325254 4.23302802 2.70325254 1.6875 3.25 C0.8521875 3.62125 0.8521875 3.62125 0 4 C0 2.68 0 1.36 0 0 Z " fill="#07251C" transform="translate(179,67)"/>
<path d="M0 0 C0 3.52232517 -0.56731481 4.05751328 -2.8125 6.625 C-3.59560547 7.54152344 -3.59560547 7.54152344 -4.39453125 8.4765625 C-6 10 -6 10 -9 11 C-8.46324097 7.14896699 -6.88399077 5.68202413 -3.9375 3.25 C-3.20402344 2.63640625 -2.47054687 2.0228125 -1.71484375 1.390625 C-1.14894531 0.93171875 -0.58304688 0.4728125 0 0 Z " fill="#1C4738" transform="translate(194,304)"/>
<path d="M0 0 C0.268125 0.639375 0.53625 1.27875 0.8125 1.9375 C1.88667752 4.33131686 1.88667752 4.33131686 5 5 C4.67 5.99 4.34 6.98 4 8 C1.37812506 6.95125002 0.20628639 6.35068687 -1.25 3.875 C-1.4975 3.25625 -1.745 2.6375 -2 2 C-1.34 1.34 -0.68 0.68 0 0 Z " fill="#0F3329" transform="translate(210,106)"/>
<path d="M0 0 C1.32 0.66 2.64 1.32 4 2 C4 2.99 4 3.98 4 5 C2.02 5.99 2.02 5.99 0 7 C-1.125 2.25 -1.125 2.25 0 0 Z " fill="#093325" transform="translate(185,229)"/>
<path d="M0 0 C0.99 0 1.98 0 3 0 C3 4 3 4 1.125 6.25 C-1 8 -1 8 -3 8 C-2.690625 7.236875 -2.38125 6.47375 -2.0625 5.6875 C-1.32106407 3.81210323 -0.63771783 1.91315348 0 0 Z " fill="#073525" transform="translate(356,129)"/>
<path d="M0 0 C1.65 0 3.3 0 5 0 C4.67 1.32 4.34 2.64 4 4 C2.35 4.33 0.7 4.66 -1 5 C-0.67 3.35 -0.34 1.7 0 0 Z " fill="#345A50" transform="translate(223,242)"/>
<path d="M0 0 C1.32 0 2.64 0 4 0 C3 3 3 3 1 6 C0.01 5.67 -0.98 5.34 -2 5 C-1.34 3.35 -0.68 1.7 0 0 Z " fill="#113327" transform="translate(268,63)"/>
<path d="M0 0 C1.32 0.66 2.64 1.32 4 2 C4 2.66 4 3.32 4 4 C3.34 4 2.68 4 2 4 C1.67 4.99 1.34 5.98 1 7 C0.34 6.67 -0.32 6.34 -1 6 C-1.042721 4.33388095 -1.04063832 2.66617115 -1 1 C-0.67 0.67 -0.34 0.34 0 0 Z " fill="#4B6A60" transform="translate(227,249)"/>
<path d="M0 0 C0.99 0 1.98 0 3 0 C3 0.99 3 1.98 3 3 C3.66 2.67 4.32 2.34 5 2 C5 3.98 5 5.96 5 8 C4.67 7.34 4.34 6.68 4 6 C3.01 6 2.02 6 1 6 C0.67 4.02 0.34 2.04 0 0 Z " fill="#0E372A" transform="translate(205,191)"/>
<path d="M0 0 C1.67542976 0.28604898 3.34385343 0.61781233 5 1 C3.515 3.475 3.515 3.475 2 6 C1.67 5.34 1.34 4.68 1 4 C-0.32 4.33 -1.64 4.66 -3 5 C-1.125 1.125 -1.125 1.125 0 0 Z " fill="#032B1A" transform="translate(256,83)"/>
<path d="M0 0 C0.33 0 0.66 0 1 0 C0.67 4.62 0.34 9.24 0 14 C-0.33 14 -0.66 14 -1 14 C-2.25 6.375 -2.25 6.375 0 3 C-0.66 2.67 -1.32 2.34 -2 2 C-1.34 2 -0.68 2 0 2 C0 1.34 0 0.68 0 0 Z " fill="#082B20" transform="translate(233,68)"/>
<path d="M0 0 C0.99 0.33 1.98 0.66 3 1 C0.68055212 4.47917182 -1.26369964 5.29429766 -5 7 C-3.70700306 4.11562221 -2.34058637 2.12780579 0 0 Z " fill="#083727" transform="translate(284,285)"/>
<path d="M0 0 C1.42944945 2.35438733 2.08661261 3.48032433 1.625 6.25 C1.41875 6.8275 1.2125 7.405 1 8 C-0.32 8.33 -1.64 8.66 -3 9 C-2.125 5.125 -2.125 5.125 -1 4 C-0.63837971 2.67405895 -0.30271961 1.34061543 0 0 Z " fill="#06251D" transform="translate(222,69)"/>
<path d="M0 0 C0.99 0.33 1.98 0.66 3 1 C3.33 3.97 3.66 6.94 4 10 C1.04816899 7.04816899 0.91336012 4.04488053 0 0 Z " fill="#073827" transform="translate(210,43)"/>
<path d="M0 0 C2.97 0 5.94 0 9 0 C8.01 1.485 8.01 1.485 7 3 C3.375 3.1875 3.375 3.1875 0 3 C0 2.01 0 1.02 0 0 Z " fill="#083929" transform="translate(211,11)"/>
<path d="M0 0 C1.67542976 0.28604898 3.34385343 0.61781233 5 1 C3.68 2.32 2.36 3.64 1 5 C0.34 3.68 -0.32 2.36 -1 1 C-0.67 0.67 -0.34 0.34 0 0 Z " fill="#4A6B60" transform="translate(201,265)"/>
<path d="M0 0 C0.66 0.66 1.32 1.32 2 2 C1.0409375 2.433125 1.0409375 2.433125 0.0625 2.875 C-2.15206079 3.82823451 -2.15206079 3.82823451 -3 6 C-3.99 6.33 -4.98 6.66 -6 7 C-4.77065985 3.31197956 -3.06140622 2.27643027 0 0 Z " fill="#093829" transform="translate(266,216)"/>
<path d="M0 0 C0.66 0.66 1.32 1.32 2 2 C1.625 4.625 1.625 4.625 1 7 C0.01 6.67 -0.98 6.34 -2 6 C-1.34 4.02 -0.68 2.04 0 0 Z " fill="#0A3426" transform="translate(304,96)"/>
<path d="M0 0 C2.86697492 1.28519565 4.97607712 2.57129254 7 5 C7 5.66 7 6.32 7 7 C4.625 6.3125 4.625 6.3125 2 5 C0.6875 2.375 0.6875 2.375 0 0 Z " fill="#204237" transform="translate(189,90)"/>
<path d="M0 0 C0.66 0 1.32 0 2 0 C2 1.98 2 3.96 2 6 C1.01 6 0.02 6 -1 6 C-1.33 5.01 -1.66 4.02 -2 3 C-1.34 2.01 -0.68 1.02 0 0 Z " fill="#12382A" transform="translate(225,251)"/>
<path d="M0 0 C0.99 0.33 1.98 0.66 3 1 C3 2.32 3 3.64 3 5 C1.68 4.67 0.36 4.34 -1 4 C-0.67 2.68 -0.34 1.36 0 0 Z " fill="#112A22" transform="translate(313,118)"/>
<path d="M0 0 C1.485 0.99 1.485 0.99 3 2 C2.67 2.99 2.34 3.98 2 5 C1.01 5 0.02 5 -1 5 C-0.67 3.35 -0.34 1.7 0 0 Z " fill="#122A22" transform="translate(274,53)"/>
</svg>
