<?xml version="1.0" encoding="UTF-8"?>
<svg version="1.1" xmlns="http://www.w3.org/2000/svg" width="500" height="500">
<path d="M0 0 C3.86862654 0.16169042 3.86862654 0.16169042 7 -0.75 C10 -1 10 -1 12.3125 0.6875 C15.25025054 4.7133063 15.11573299 8.35256466 15.0625 13.25 C15.05347656 14.32765625 15.04445313 15.4053125 15.03515625 16.515625 C15.01775391 17.74539062 15.01775391 17.74539062 15 19 C16.1446875 17.9790625 16.1446875 17.9790625 17.3125 16.9375 C18.6428125 15.9784375 18.6428125 15.9784375 20 15 C23 16 23 16 24 18 C25.90062381 37.59608684 20.43501584 53.63673762 12 71 C11.48832275 72.05429199 11.48832275 72.05429199 10.96630859 73.12988281 C5.76558952 83.69111262 0.67155839 93.78990215 -11 98 C-15.97395785 99.61220723 -20.73341909 100.45125183 -25.9375 100.75 C-26.98647461 100.81465454 -26.98647461 100.81465454 -28.05664062 100.88061523 C-33.14162752 101.12289851 -37.22466551 100.6912643 -42 99 C-42.11303467 99.68312256 -42.22606934 100.36624512 -42.3425293 101.07006836 C-43.1098171 104.48938544 -44.26768904 107.60477362 -45.51953125 110.87890625 C-46.0468122 112.26997053 -46.57373225 113.66117165 -47.1003418 115.05249023 C-47.37905121 115.78555389 -47.65776062 116.51861755 -47.94491577 117.27389526 C-59.35455151 147.37142992 -69.29031963 177.79536255 -77.453125 208.93481445 C-78.02375587 211.08971023 -78.61319283 213.23898758 -79.203125 215.38867188 C-79.58400399 216.81622748 -79.96423478 218.24395623 -80.34375 219.671875 C-80.68599609 220.93612305 -81.02824219 222.20037109 -81.38085938 223.50292969 C-82.32628079 228.84292037 -81.35694499 232.77790681 -78.96875 237.56640625 C-78.57042969 238.38173828 -78.17210937 239.19707031 -77.76171875 240.03710938 C-77.13716797 241.28717773 -77.13716797 241.28717773 -76.5 242.5625 C-75.671809 244.2278562 -74.84871613 245.89575945 -74.03125 247.56640625 C-73.66580078 248.29802979 -73.30035156 249.02965332 -72.92382812 249.78344727 C-71.92773776 252.17337973 -71.42763454 254.45182431 -71 257 C-70.34 257 -69.68 257 -69 257 C-68.89768066 256.45545166 -68.79536133 255.91090332 -68.68994141 255.34985352 C-67.51505448 249.56022366 -65.72624611 244.34718082 -63.375 238.9375 C-63.02163574 238.11677002 -62.66827148 237.29604004 -62.30419922 236.45043945 C-56.41458249 222.92521541 -50.03735585 210.69817381 -41 199 C-40.29230469 198.06800781 -39.58460938 197.13601562 -38.85546875 196.17578125 C-32.94086204 188.65907328 -26.20463235 182.00517096 -19.36938477 175.33764648 C-18.23850531 174.23297747 -17.11785106 173.11785106 -16 172 C-16.33 171.01 -16.66 170.02 -17 169 C-18.82171707 162.43917838 -18.79208326 157.01846196 -15.4375 151.06640625 C-5.52650203 136.81934667 10.87199435 129.35202652 27.375 125.6875 C32.70335348 124.77756771 37.66807089 124.06722836 42.8125 126.125 C45.64207349 128.5503487 46.77932625 130.47360918 48 134 C47.6875 137.875 47.6875 137.875 47 141 C47.78375 141.061875 48.5675 141.12375 49.375 141.1875 C52 142 52 142 53.375 144.0625 C54.60790205 149.85713964 53.66217444 155.09891222 50.4609375 160.09375 C39.77285759 174.03969384 22.60221875 184.33566306 5.23828125 187.50390625 C0.02270251 187.77841039 -4.10077572 186.35739659 -8 183 C-9.90129464 180.75214026 -11.41523338 178.49720801 -13 176 C-17.18474529 179.50939735 -21.1814583 183.08832313 -25 187 C-25.57234375 187.52722656 -26.1446875 188.05445313 -26.734375 188.59765625 C-46.60135533 207.31235173 -59.91935969 236.07110148 -67 262 C-66.949799 265.06226092 -66.7054992 267.10347862 -66 270 C-63.46233946 281.65282052 -62.02441753 293.12880858 -61 305 C-60.23429687 304.03513672 -60.23429687 304.03513672 -59.453125 303.05078125 C-34.28440844 271.76838708 -2.83528327 248.61862178 36 237 C36.81146484 236.75282227 37.62292969 236.50564453 38.45898438 236.25097656 C40.8639113 235.52530274 43.27322511 234.81889917 45.6875 234.125 C46.74698853 233.81949219 46.74698853 233.81949219 47.82788086 233.5078125 C52.86922936 232.13045368 57.79583053 231.48007059 63 231 C63 232.32 63 233.64 63 235 C62.29875 235.12375 61.5975 235.2475 60.875 235.375 C53.02708597 237.08106827 49.06408254 239.87835805 44 246 C42.97519531 247.22589844 42.97519531 247.22589844 41.9296875 248.4765625 C40.43388624 250.29404144 38.95009195 252.12144903 37.4765625 253.95703125 C34.75580764 257.30004077 31.9483259 260.55634545 29.125 263.8125 C24.09537904 269.63387239 19.31233976 275.61596368 14.58984375 281.6875 C11.51759946 285.63346003 8.35328429 289.50107012 5.171875 293.359375 C3.71371323 295.13224795 2.26589273 296.91367308 0.828125 298.703125 C-3.98357769 304.67509642 -9.00225251 310.37178761 -14.2265625 315.98046875 C-16.31083201 318.22081223 -18.30767883 320.52265872 -20.296875 322.84765625 C-24.14832628 327.2669161 -28.33403442 331.26228287 -32.625 335.25 C-33.36234375 335.94351562 -34.0996875 336.63703125 -34.859375 337.3515625 C-45.17322198 347 -45.17322198 347 -50 347 C-48.48947977 343.32329416 -46.3511385 341.28125538 -43.375 338.6875 C-42.47910156 337.89988281 -41.58320313 337.11226563 -40.66015625 336.30078125 C-39.04310497 334.90218624 -37.42594662 333.50371499 -35.80859375 332.10546875 C-29.35453192 326.51026447 -23.45111644 320.62852801 -17.875 314.15625 C-15.82640906 311.80037042 -13.72796998 309.4949254 -11.625 307.1875 C-6.89398208 301.9387781 -2.43857955 296.49637187 2 291 C3.02278358 289.74556031 4.04626167 288.49168665 5.0703125 287.23828125 C10.28058629 280.8546837 15.44847231 274.44755431 20.5 267.9375 C25.46361228 261.55427261 30.72117984 255.45048088 36.0546875 249.375 C38.7584158 246.29413082 41.38920829 243.15992502 44 240 C34.56983576 242.00193431 25.81934615 245.17649732 17 249 C16.32275879 249.29003906 15.64551758 249.58007812 14.94775391 249.87890625 C-10.88990096 261.06372382 -34.82036525 278.59614883 -52 301 C-52.67160156 301.85207031 -53.34320313 302.70414062 -54.03515625 303.58203125 C-59.40884709 310.03897804 -59.40884709 310.03897804 -61.640625 317.91015625 C-61.73819092 318.89113281 -61.83575684 319.87210937 -61.9362793 320.8828125 C-62.09157104 322.45675781 -62.09157104 322.45675781 -62.25 324.0625 C-64.20625 341.33217702 -70.13186857 367.10989047 -84.25 378.875 C-84.8275 379.24625 -85.405 379.6175 -86 380 C-88.46800047 378.84826645 -90.04783565 377.95216435 -92 376 C-93.05310124 370.43519135 -92.07127838 365.57943588 -89.8359375 360.453125 C-89.38178467 359.40527832 -88.92763184 358.35743164 -88.4597168 357.27783203 C-87.97801025 356.19614746 -87.49630371 355.11446289 -87 354 C-86.5356958 352.95054199 -86.0713916 351.90108398 -85.59301758 350.81982422 C-84.14391497 347.57901808 -82.66963475 344.35082268 -81.1875 341.125 C-80.66704102 339.97805664 -80.14658203 338.83111328 -79.61035156 337.64941406 C-76.85210465 331.65818188 -73.95050758 326.19851917 -70.25 320.75 C-62.60427363 307.92234681 -66.57047799 288.84247485 -70 275 C-70.33 274.67 -70.66 274.34 -71 274 C-81.50773857 308.0319016 -91.4433228 342.17241692 -100.38809204 376.65101624 C-100.78607123 378.1787732 -101.19189041 379.70451663 -101.60678101 381.22776794 C-102.61176343 385.0054009 -103.24278561 388.40038671 -103.1171875 392.30859375 C-103.07126465 393.77413696 -103.07126465 393.77413696 -103.02441406 395.26928711 C-102.97510742 396.31479736 -102.92580078 397.36030762 -102.875 398.4375 C-102.82569336 399.55713135 -102.77638672 400.6767627 -102.72558594 401.83032227 C-101.22213835 430.65361657 -96.67284834 459.52513529 -89.52368164 487.46972656 C-88.53086484 491.39937631 -87.71004064 494.90743076 -88 499 C-88.99 499 -89.98 499 -91 499 C-93.71569322 489.87502954 -96.08292768 480.76855607 -98 471.4375 C-98.38236816 469.5805249 -98.38236816 469.5805249 -98.77246094 467.68603516 C-102.3474985 449.82211794 -104.8197186 431.70070881 -106.31738281 413.54248047 C-106.64258412 409.93441366 -106.94563218 408.08155173 -109 405 C-109.53502953 402.91956645 -110.0617256 400.83663726 -110.54638672 398.74389648 C-113.60179668 385.66706766 -117.92292947 373.09052511 -122.375 360.4375 C-122.70776947 359.49094543 -123.04053894 358.54439087 -123.38339233 357.56915283 C-126.69769498 348.16081632 -130.0597238 338.77275757 -133.54833984 329.42749023 C-142.37623769 305.7497909 -149.9667622 280.18761182 -150.23828125 254.7265625 C-150.24802979 253.94687103 -150.25777832 253.16717957 -150.26782227 252.36386108 C-150.45256777 233.50065209 -149.8022211 214.80494151 -148.3125 196 C-148.23261841 194.93835632 -148.15273682 193.87671265 -148.07043457 192.78289795 C-147.15917799 180.76397253 -145.90576678 168.91165904 -143.953125 157.015625 C-139.54315238 128.89083364 -141.56474346 111.28055369 -156.66673279 86.85620117 C-160.11389613 81.17976419 -162.00663035 75.59540139 -163 69 C-158.93463505 66.70990359 -156.58143848 66.89413554 -152 68 C-146.11497068 71.11560376 -143.06793785 75.10809211 -140.76953125 81.33203125 C-136.58476873 96.5509023 -136.58476873 96.5509023 -137.30297852 104.24633789 C-138.19219254 117.03569146 -133.53991644 125.94322868 -127.6875 137.0625 C-126.7500335 138.90180327 -125.81589445 140.7428061 -124.88500977 142.58544922 C-123.07070511 146.16960225 -121.24258953 149.74602535 -119.40039062 153.31591797 C-116.62992959 158.69859307 -114.00696544 164.14389746 -111.4375 169.625 C-106.32745251 180.39165797 -101.09722006 191.09996318 -95.875 201.8125 C-95.44250946 202.69971741 -95.01001892 203.58693481 -94.56442261 204.5010376 C-90.31134735 213.26489804 -90.31134735 213.26489804 -86 222 C-83.42120913 214.64597179 -81.38757984 207.17766768 -79.38632202 199.6506958 C-75.37341835 184.61025688 -70.95942963 169.75858564 -66 155 C-65.53720853 153.61606945 -65.0744843 152.23211641 -64.61181641 150.84814453 C-54.05342046 119.31936204 -54.05342046 119.31936204 -48.234375 105.68237305 C-46.74718977 102.15872162 -46 99.89104042 -46 96 C-47.57925445 94.26952141 -47.57925445 94.26952141 -49.6875 92.75 C-56.65263991 86.95392068 -60.41196041 79.92502872 -62 71 C-63.47595579 53.59180916 -57.33157441 37.89802525 -46.875 24.125 C-36.94456595 12.84348649 -15.55376001 -2.85681306 0 0 Z M-17.125 6.9375 C-18.38534058 7.54658203 -18.38534058 7.54658203 -19.67114258 8.16796875 C-37.12409562 16.85173001 -50.51631364 30.39118625 -56.9375 49.0625 C-59.94951847 59.13580682 -60.21237965 69.23422096 -56 79 C-51.18721254 87.90152724 -44.73195839 93.91022713 -35 97 C-30.85811305 97.74689765 -27.7477251 97.34395354 -23.875 95.5625 C-10.87687731 83.97721674 -7.73446855 65.35149969 -5 49 C-4.78472656 47.74960937 -4.56945312 46.49921875 -4.34765625 45.2109375 C-2.14490652 31.22267278 -1.81484111 17.13379546 -2 3 C-7.88242632 2.40419155 -11.97269064 4.42422844 -17.125 6.9375 Z M2 6 C0.80012463 9.44118926 0.79870642 12.89779813 0.68359375 16.515625 C0.64169922 17.76601563 0.59980469 19.01640625 0.55664062 20.3046875 C0.51732422 21.60664063 0.47800781 22.90859375 0.4375 24.25 C0.39431641 25.56742188 0.35113281 26.88484375 0.30664062 28.2421875 C0.20058083 31.49468788 0.09851976 34.74726392 0 38 C8.74282374 29.4628929 8.74282374 29.4628929 11.1328125 17.86328125 C11.13544834 16.34635422 11.13271964 14.82940968 11.125 13.3125 C11.12886719 12.54099609 11.13273438 11.76949219 11.13671875 10.97460938 C11.22836114 6.8553119 11.22836114 6.8553119 10 3 C5.75105275 3 4.92695231 3.17397708 2 6 Z M20 19 C17.28256955 22.01825301 14.70370226 25.13666406 12.125 28.2734375 C10.1679095 30.65007928 8.15443853 32.90318477 6 35.1015625 C-2.372809 44.03434092 -3.93547539 53.10773273 -5.8984375 64.96875 C-7.82770766 76.38093371 -12.6132215 86.37453595 -19 96 C-12.79132565 95.60370164 -7.92096742 93.88915167 -3 90 C-0.09377304 86.65718737 1.94114823 82.89752614 4 79 C4.42603516 78.20787109 4.85207031 77.41574219 5.29101562 76.59960938 C11.44901164 65.05869016 16.81469693 53.72574963 20 41 C20.20238281 40.21367188 20.40476562 39.42734375 20.61328125 38.6171875 C21.17676962 34.80368037 21.10443656 31.03598604 21.0625 27.1875 C21.05798828 26.39923828 21.05347656 25.61097656 21.04882812 24.79882812 C21.03711312 22.86585239 21.01917998 20.93291607 21 19 C20.67 19 20.34 19 20 19 Z M-158 70 C-157.52093528 76.09394133 -156.15197553 80.57325261 -153.40234375 86 C-153.04862198 86.7211499 -152.69490021 87.4422998 -152.33045959 88.18530273 C-151.21040809 90.46246621 -150.07432517 92.73117182 -148.9375 95 C-148.17014515 96.55285278 -147.40385844 98.10623388 -146.63867188 99.66015625 C-144.77140336 103.44632187 -142.88972489 107.22499588 -141 111 C-140.67 111 -140.34 111 -140 111 C-139.48753318 98.51099369 -140.16616546 85.85373721 -147 75 C-150.44916647 71.46006599 -153.10494044 70.45535438 -158 70 Z M-138 126 C-139.0900365 128.180073 -139.27454504 129.69025809 -139.52490234 132.10620117 C-139.61534821 132.962612 -139.70579407 133.81902283 -139.79898071 134.7013855 C-139.89367645 135.63910797 -139.98837219 136.57683044 -140.0859375 137.54296875 C-140.18748138 138.52242462 -140.28902527 139.50188049 -140.39364624 140.51101685 C-140.72577861 143.73602119 -141.05100317 146.96166873 -141.375 150.1875 C-141.48638306 151.28645599 -141.59776611 152.38541199 -141.71252441 153.51766968 C-144.48182078 180.91491956 -147.19142916 208.4614247 -148 236 C-148.04125 237.30839844 -148.0825 238.61679688 -148.125 239.96484375 C-148.43565708 259.40032708 -145.81376136 278.19750391 -141 297 C-140.7613623 297.93618164 -140.52272461 298.87236328 -140.27685547 299.83691406 C-135.30655583 318.79205028 -128.4050027 337.12229617 -121.6105957 355.48168945 C-116.45164734 369.49665001 -111.9834346 383.60649384 -108 398 C-107.67 398 -107.34 398 -107 398 C-107.01571045 396.80515991 -107.01571045 396.80515991 -107.03173828 395.58618164 C-107.56756046 347.99635515 -102.63684549 301.33063811 -91.95703125 254.90625 C-91.70937263 253.82899658 -91.70937263 253.82899658 -91.45671082 252.72998047 C-90.67514842 249.35301502 -89.87301771 245.98336496 -89.0456543 242.6171875 C-88.76246338 241.43382812 -88.47927246 240.25046875 -88.1875 239.03125 C-87.80658203 237.49307617 -87.80658203 237.49307617 -87.41796875 235.92382812 C-86.60641155 230.24672004 -88.20227292 226.10263514 -90.7734375 221.09765625 C-91.34465332 219.97335205 -91.91586914 218.84904785 -92.50439453 217.69067383 C-92.80879456 217.10041412 -93.11319458 216.51015442 -93.42681885 215.90200806 C-95.05662342 212.74012424 -96.65883098 209.56424517 -98.265625 206.390625 C-98.58963287 205.75252396 -98.91364075 205.11442291 -99.24746704 204.45698547 C-101.95656308 199.1137284 -104.56347062 193.72767644 -107.125 188.3125 C-110.69797716 180.77419419 -114.32563497 173.26461674 -117.98828125 165.76953125 C-118.4336322 164.85808853 -118.87898315 163.94664581 -119.33782959 163.00758362 C-121.58812237 158.40397679 -123.84100277 153.80164969 -126.09619141 149.20043945 C-126.93785916 147.47999693 -127.77949462 145.7595386 -128.62109375 144.0390625 C-129.00300369 143.26170242 -129.38491364 142.48434235 -129.77839661 141.6834259 C-132.30832005 136.50746729 -134.69419162 131.27952291 -137 126 C-137.33 126 -137.66 126 -138 126 Z M-11.19140625 151.625 C-14.06428461 155.39759188 -15.0921784 157.70950242 -14.75 162.5 C-13.48519502 168.87293066 -13.48519502 168.87293066 -8.875 173.25 C-4.12552721 175.63942549 0.17706099 176.6628576 5.37890625 175.44140625 C12.33130205 172.99337956 17.51380842 168.81214938 23 164 C23.85980469 163.27296875 24.71960938 162.5459375 25.60546875 161.796875 C31.14397966 157.004094 35.74489035 151.95997147 40 146 C37.22679146 144.61339573 35.99570129 145.3897393 33.046875 146.2578125 C32.04076172 146.55163818 31.03464844 146.84546387 29.99804688 147.14819336 C28.92619141 147.47053955 27.85433594 147.79288574 26.75 148.125 C25.66783203 148.4454126 24.58566406 148.7658252 23.47070312 149.09594727 C15.54358798 151.46922509 7.73008246 154.04678188 0 157 C-0.33 156.34 -0.66 155.68 -1 155 C5.57170092 152.79733045 12.15226828 150.62352058 18.75 148.5 C19.70994873 148.19102783 20.66989746 147.88205566 21.65893555 147.5637207 C28.00597917 145.55171268 34.29033155 143.86641733 40.83203125 142.60546875 C41.54746094 142.40566406 42.26289063 142.20585937 43 142 C44.55774936 138.88450128 44.56480622 135.3955612 44 132 C42.4298575 129.77563146 41.50890675 129.10159829 38.828125 128.56640625 C19.60825323 128.53728523 1.1379199 136.85618151 -11.19140625 151.625 Z M45 144 C43.02690118 145.89397274 43.02690118 145.89397274 41.25 148.4375 C40.19425781 149.81421875 40.19425781 149.81421875 39.1171875 151.21875 C38.41851562 152.1365625 37.71984375 153.054375 37 154 C29.25021312 163.7962674 17.72501874 175.46677868 5 178 C0.97235618 178.2733044 -2.97240229 178.24912976 -7 178 C-4.37593536 181.1011673 -2.76925761 182.81325993 1.234375 183.78515625 C15.13640475 184.57832185 29.62888543 174.42603717 39.8046875 165.984375 C44.98214631 161.30439444 49.81285557 156.61812561 50.1875 149.375 C50.2312731 146.13178691 50.2312731 146.13178691 49 144 C47.68 144 46.36 144 45 144 Z M-85 236 C-92.55453108 270.1064117 -99.73487469 304.16982867 -103 339 C-103.07057617 339.74040527 -103.14115234 340.48081055 -103.21386719 341.24365234 C-104.18099279 351.81807059 -104.1027567 362.39322462 -104 373 C-101.80561897 369.19195674 -100.83994896 365.06469955 -99.7421875 360.84765625 C-99.28475081 359.12847202 -98.82688396 357.40940221 -98.36865234 355.69042969 C-98.12604675 354.77531616 -97.88344116 353.86020264 -97.63348389 352.9173584 C-91.96378374 331.5771673 -85.71329844 310.43475508 -79.25732422 289.32055664 C-78.92277222 288.22503983 -78.58822021 287.12952301 -78.24353027 286.00080872 C-77.6177554 283.95421502 -76.98989844 281.90825624 -76.35949707 279.86308289 C-72.30593023 268.0983597 -72.30593023 268.0983597 -74.5 256.25 C-74.77537598 255.56550781 -75.05075195 254.88101563 -75.33447266 254.17578125 C-77.88773179 247.95411293 -80.8321256 241.93133931 -84 236 C-84.33 236 -84.66 236 -85 236 Z M-67 321 C-82.21564849 344.64338191 -82.21564849 344.64338191 -89.125 370.8125 C-89.10695313 371.60269531 -89.08890625 372.39289063 -89.0703125 373.20703125 C-89.04710937 373.79871094 -89.02390625 374.39039063 -89 375 C-85.14219561 375.4629712 -85.14219561 375.4629712 -83.54296875 373.59375 C-73.17435616 357.57767983 -67.83979009 339.85784845 -66 321 C-66.33 321 -66.66 321 -67 321 Z " fill="#072A1F" transform="translate(299,1)"/>
<path d="M0 0 C0.33 0 0.66 0 1 0 C1 1.65 1 3.3 1 5 C1.99 5 2.98 5 4 5 C3.67 8.3 3.34 11.6 3 15 C2.34 15 1.68 15 1 15 C1.33 16.32 1.66 17.64 2 19 C1.34 19 0.68 19 0 19 C0 12.73 0 6.46 0 0 Z " fill="#042B1C" transform="translate(191,367)"/>
<path d="M0 0 C0.33 0 0.66 0 1 0 C1 4.62 1 9.24 1 14 C0.34 13.34 -0.32 12.68 -1 12 C-1.33 13.65 -1.66 15.3 -2 17 C-2.33 17 -2.66 17 -3 17 C-3 12.71 -3 8.42 -3 4 C-2.67 4.66 -2.34 5.32 -2 6 C-1.34 6 -0.68 6 0 6 C-0.185625 5.38125 -0.37125 4.7625 -0.5625 4.125 C-1 2 -1 2 0 0 Z " fill="#022316" transform="translate(195,341)"/>
<path d="M0 0 C0.66 0 1.32 0 2 0 C2.33 3.63 2.66 7.26 3 11 C1 9.375 1 9.375 -1 7 C-1.3125 3.8125 -1.3125 3.8125 -1 1 C-0.67 0.67 -0.34 0.34 0 0 Z " fill="#0A3023" transform="translate(139,70)"/>
<path d="M0 0 C0.33 1.32 0.66 2.64 1 4 C0.01 4.495 0.01 4.495 -1 5 C-1.46751788 7.35599235 -1.46751788 7.35599235 -1.625 10.0625 C-1.69976562 10.98160156 -1.77453125 11.90070313 -1.8515625 12.84765625 C-1.90054688 13.55792969 -1.94953125 14.26820313 -2 15 C-2.99 13.68 -3.98 12.36 -5 11 C-4.34 10.67 -3.68 10.34 -3 10 C-3.33 8.02 -3.66 6.04 -4 4 C-3.34 4 -2.68 4 -2 4 C-1.34 2.68 -0.68 1.36 0 0 Z " fill="#0B3829" transform="translate(197,372)"/>
<path d="M0 0 C0.66 0 1.32 0 2 0 C3.26237731 2.52475462 3.09856404 4.31200466 3.0625 7.125 C3.05347656 8.03507812 3.04445312 8.94515625 3.03515625 9.8828125 C3.02355469 10.58148438 3.01195312 11.28015625 3 12 C2.67 12 2.34 12 2 12 C2 10.35 2 8.7 2 7 C1.34 7 0.68 7 0 7 C0 4.69 0 2.38 0 0 Z " fill="#092E22" transform="translate(196,437)"/>
<path d="M0 0 C2.475 0.495 2.475 0.495 5 1 C4.34 2.65 3.68 4.3 3 6 C2.34 6 1.68 6 1 6 C0.67 6.66 0.34 7.32 0 8 C0 5.36 0 2.72 0 0 Z " fill="#093526" transform="translate(310,21)"/>
<path d="M0 0 C0.66 0.33 1.32 0.66 2 1 C1.19642857 9.03571429 1.19642857 9.03571429 -1 13 C-1.02696365 11.20841511 -1.04637917 9.41671527 -1.0625 7.625 C-1.07410156 6.62726563 -1.08570313 5.62953125 -1.09765625 4.6015625 C-1 2 -1 2 0 0 Z " fill="#042C1E" transform="translate(196,375)"/>
<path d="M0 0 C0.33 0 0.66 0 1 0 C1 2.64 1 5.28 1 8 C0.01 8.33 -0.98 8.66 -2 9 C-2.33 6.69 -2.66 4.38 -3 2 C-2.01 2.495 -2.01 2.495 -1 3 C-0.67 2.01 -0.34 1.02 0 0 Z " fill="#052A20" transform="translate(235,286)"/>
<path d="M0 0 C1.32 0.66 2.64 1.32 4 2 C2 4 2 4 0.0546875 4.1953125 C-1.96354167 4.13020833 -3.98177083 4.06510417 -6 4 C-5.38125 3.71125 -4.7625 3.4225 -4.125 3.125 C-1.86674235 2.06279958 -1.86674235 2.06279958 0 0 Z " fill="#0B3627" transform="translate(276,96)"/>
<path d="M0 0 C0.433125 0.9590625 0.433125 0.9590625 0.875 1.9375 C1.82823451 4.15206079 1.82823451 4.15206079 4 5 C2.68 6.32 1.36 7.64 0 9 C-0.99 8.34 -1.98 7.68 -3 7 C-2.34 6.34 -1.68 5.68 -1 5 C-0.35232207 2.42938689 -0.35232207 2.42938689 0 0 Z " fill="#042318" transform="translate(309,23)"/>
<path d="M0 0 C0.33 0 0.66 0 1 0 C2.23076923 6.4 2.23076923 6.4 1.0625 9.4375 C0.711875 9.953125 0.36125 10.46875 0 11 C-1 10 -1 10 -1.125 6.625 C-1 3 -1 3 0 0 Z " fill="#09291E" transform="translate(298,12)"/>
<path d="M0 0 C0.66 0 1.32 0 2 0 C1.74438677 2.3431213 1.40729228 4.67843403 1 7 C0.01 7.495 0.01 7.495 -1 8 C-1.125 2.25 -1.125 2.25 0 0 Z " fill="#083023" transform="translate(203,346)"/>
<path d="M0 0 C0 3.20395416 -0.74335022 5.09399739 -2 8 C-2.66 8 -3.32 8 -4 8 C-3.6875 5.125 -3.6875 5.125 -3 2 C-2.01 1.34 -1.02 0.68 0 0 Z " fill="#0D2E22" transform="translate(286,151)"/>
<path d="M0 0 C0.66 0 1.32 0 2 0 C2.33 2.31 2.66 4.62 3 7 C2.01 7 1.02 7 0 7 C0 4.69 0 2.38 0 0 Z " fill="#14382E" transform="translate(208,493)"/>
<path d="M0 0 C0.99 0 1.98 0 3 0 C2.67 2.31 2.34 4.62 2 7 C1.34 7 0.68 7 0 7 C0 4.69 0 2.38 0 0 Z " fill="#0B3023" transform="translate(199,291)"/>
</svg>
